<?xml version="1.0" standalone="no"?>
<!DOCTYPE svg PUBLIC "-//W3C//DTD SVG 20010904//EN"
 "http://www.w3.org/TR/2001/REC-SVG-20010904/DTD/svg10.dtd">
<svg version="1.0" xmlns="http://www.w3.org/2000/svg"
 width="418.000000pt" height="418.000000pt" viewBox="0 0 418.000000 418.000000"
 preserveAspectRatio="xMidYMid meet">
<metadata>
Created by potrace 1.14, written by Peter Selinger 2001-2017
</metadata>
<g transform="translate(0.000000,418.000000) scale(0.100000,-0.100000)"
fill="#000000" stroke="none">
<path d="M1921 3949 c-18 -15 -38 -20 -70 -19 -25 1 -48 1 -51 0 -3 0 -45 -3
-95 -5 -105 -6 -147 -13 -140 -25 3 -5 -9 -13 -27 -18 -18 -5 -51 -21 -72 -36
-21 -14 -42 -26 -46 -26 -5 0 -32 -16 -61 -35 -67 -44 -169 -143 -214 -210
-19 -27 -48 -68 -65 -90 -80 -107 -76 -98 -146 -340 -46 -160 -56 -229 -50
-341 5 -117 28 -239 54 -289 8 -16 20 -53 27 -81 10 -43 9 -56 -3 -80 -11 -21
-13 -45 -8 -98 4 -39 10 -73 14 -76 5 -3 19 -31 31 -63 26 -64 41 -80 41 -45
1 16 8 8 25 -29 22 -47 55 -80 67 -68 3 3 4 -19 4 -48 -2 -49 -3 -52 -28 -52
-27 1 -28 -14 -3 -45 7 -8 24 -38 37 -66 14 -28 36 -61 50 -75 19 -19 29 -52
51 -164 16 -77 34 -152 42 -167 7 -15 16 -46 20 -68 4 -23 17 -60 30 -83 16
-30 24 -66 28 -124 l6 -82 -64 -51 c-36 -27 -85 -69 -109 -93 -50 -47 -199
-218 -224 -257 -72 -109 -192 -242 -252 -279 -15 -9 -79 -54 -143 -100 l-117
-85 0 -53 0 -53 73 -1 c221 -3 582 2 588 9 3 4 12 23 19 42 7 19 19 53 27 75
8 22 19 70 24 107 4 37 12 75 17 85 5 10 17 49 26 87 9 38 23 74 31 80 13 10
33 58 57 135 9 30 11 33 20 17 5 -10 13 -39 18 -64 l8 -47 1 62 c1 78 25 141
58 154 25 9 63 -3 63 -21 0 -5 18 -19 39 -30 22 -10 41 -24 43 -30 1 -5 48
-61 103 -124 96 -109 155 -156 196 -156 10 0 19 -4 19 -10 0 -15 18 -12 38 7
27 25 80 53 102 53 10 0 22 5 25 10 4 6 10 8 15 5 5 -3 18 0 29 7 17 10 28 8
71 -16 42 -23 59 -27 88 -21 21 4 47 6 60 6 34 -1 87 31 124 75 18 22 42 49
53 61 11 12 45 49 75 84 30 35 78 86 105 115 28 28 69 75 93 103 47 56 86 66
96 26 3 -12 18 -35 33 -51 28 -29 75 -117 88 -164 4 -14 11 -29 15 -35 5 -5
20 -64 35 -130 15 -66 33 -123 40 -127 8 -5 16 -37 20 -78 8 -77 47 -164 113
-252 32 -43 40 -48 75 -48 28 0 36 3 31 13 -6 9 -4 9 7 -1 32 -30 78 -5 47 26
-9 9 -8 12 5 12 19 0 21 8 7 30 -7 11 -12 12 -20 4 -8 -8 -18 -8 -35 0 -24 11
-40 52 -23 62 4 3 6 9 3 14 -3 5 -1 11 4 14 5 4 12 2 15 -3 4 -5 2 -12 -3 -16
-11 -6 6 -65 19 -65 17 0 20 19 5 33 -17 17 -20 37 -6 37 5 0 11 8 13 18 2 12
15 2 46 -39 42 -56 51 -78 32 -80 -5 -1 -14 -3 -20 -4 -5 -1 -12 -3 -15 -4 -3
0 -1 -9 4 -20 8 -13 19 -18 46 -15 19 1 35 -1 35 -6 0 -4 47 -8 105 -9 l105
-2 -1 283 0 283 -107 70 c-93 60 -202 120 -323 176 -147 68 -251 128 -300 173
-31 28 -71 63 -88 77 -27 24 -31 33 -31 79 0 28 6 61 12 73 15 27 38 118 43
172 27 294 44 408 64 428 14 14 15 40 1 32 -15 -9 -25 25 -13 44 6 9 8 51 5
96 l-4 80 33 10 34 10 0 67 c0 74 5 84 32 70 11 -6 24 -7 31 -3 11 6 39 152
73 370 5 36 15 71 21 78 21 26 27 256 8 338 -5 22 -11 52 -14 66 -3 14 -17 42
-31 63 -14 21 -37 72 -51 114 -14 42 -40 94 -58 116 -18 23 -39 50 -47 62 -63
92 -131 171 -208 243 -50 46 -89 87 -86 90 2 4 -21 22 -51 40 -29 19 -54 38
-54 43 0 11 -93 53 -139 62 -22 4 -53 0 -84 -10 -49 -16 -137 -13 -137 6 0 4
-9 6 -20 3 -11 -3 -30 1 -42 9 -14 9 -62 17 -118 21 -86 6 -97 4 -119 -14z
m684 -123 c63 -28 74 -42 18 -22 -21 7 -55 16 -75 20 -21 4 -38 11 -38 16 0
17 37 11 95 -14z m-187 -620 c15 -8 65 -17 110 -21 76 -7 84 -10 96 -34 8 -14
26 -36 41 -49 23 -20 26 -29 20 -55 -4 -18 -7 -51 -7 -73 -1 -38 5 -47 56 -95
31 -29 56 -60 54 -68 -1 -9 1 -25 5 -36 3 -11 8 -48 11 -83 3 -35 9 -68 12
-74 4 -6 8 -53 8 -105 1 -105 -4 -110 -58 -66 -29 23 -54 31 -103 35 -7 1 -13
5 -13 8 0 4 -13 13 -28 19 -22 9 -43 8 -100 -4 -41 -8 -87 -15 -103 -15 -16 0
-46 -8 -67 -19 -20 -10 -54 -21 -74 -25 -21 -4 -43 -14 -50 -24 -21 -27 -75
-62 -98 -62 -12 0 -29 -4 -39 -10 -37 -19 -119 1 -189 47 -76 50 -152 76 -232
79 -55 2 -71 5 -122 18 -27 8 -65 -6 -83 -31 -6 -8 -30 -17 -53 -20 -33 -4
-50 -15 -82 -49 -22 -24 -42 -44 -43 -44 -14 0 -14 252 0 290 14 39 13 61 -5
83 -7 8 -10 21 -8 28 3 8 7 33 10 56 2 23 7 47 11 53 4 6 7 28 7 48 -1 71 16
108 71 158 82 74 90 76 301 66 188 -9 370 2 411 25 11 6 43 14 70 18 28 4 61
14 74 22 13 8 34 13 47 10 12 -2 40 -1 61 3 21 4 42 8 46 9 4 0 20 -5 35 -13z
m612 -764 c0 -18 -48 -72 -64 -72 -12 0 5 43 27 68 25 27 37 28 37 4z m-411
-6 c-2 -2 -51 -6 -109 -9 -59 -3 -94 -2 -80 3 24 8 198 14 189 6z m-926 -43
c-13 -2 -33 -2 -45 0 -13 2 -3 4 22 4 25 0 35 -2 23 -4z m-577 -63 c26 -13 32
-19 20 -20 -20 0 -20 0 0 -15 23 -17 3 -20 -29 -4 -23 12 -57 44 -57 54 0 10
27 5 66 -15z m518 1 c6 -10 -113 -26 -122 -16 -4 3 0 10 8 15 19 12 107 13
114 1z m454 -27 c15 -4 21 -12 18 -21 -4 -8 3 -26 14 -40 11 -14 20 -33 20
-42 0 -26 40 -124 59 -146 10 -11 22 -27 27 -37 14 -25 85 -100 91 -94 2 2 -5
14 -17 26 -29 29 -21 33 30 15 23 -8 54 -15 69 -14 20 1 16 4 -20 15 -60 19
-127 77 -150 132 -22 51 -23 63 -7 60 14 -4 28 43 17 57 -5 7 18 8 74 4 45 -4
84 -6 86 -3 2 2 -3 4 -12 4 -10 0 -17 8 -17 21 0 23 16 17 38 -13 18 -24 88
-24 115 0 19 16 20 16 9 -4 -11 -20 -9 -22 33 -28 47 -8 112 1 121 15 3 5 12
9 21 9 8 0 27 9 41 21 26 20 26 20 34 0 8 -21 0 -91 -11 -89 -24 3 -29 -5 -25
-41 6 -50 -27 -91 -105 -131 -34 -17 -48 -29 -36 -29 36 -1 109 39 143 77 32
36 33 37 48 17 9 -11 21 -33 26 -48 7 -19 15 -26 26 -22 13 5 14 -3 9 -54 -2
-32 -13 -70 -22 -85 -9 -14 -15 -33 -11 -41 7 -18 -20 -21 -28 -2 -3 6 -4 3
-2 -8 12 -58 15 -79 10 -67 -10 21 -24 13 -24 -14 0 -14 -4 -23 -9 -19 -16 9
-20 -9 -5 -23 12 -11 14 -10 14 3 0 8 5 15 10 15 15 0 12 -26 -4 -39 -17 -14
-22 -171 -6 -171 5 0 10 -8 10 -17 0 -15 -2 -16 -10 -3 -5 8 -10 10 -10 4 0
-11 -35 -12 -46 -1 -12 11 -58 -5 -73 -26 -13 -18 -14 -18 -33 10 -10 15 -25
43 -33 61 -8 17 -26 36 -40 42 -14 5 -25 16 -25 24 0 8 -13 24 -30 36 -25 18
-30 19 -30 6 0 -18 -15 -21 -25 -7 -3 6 -18 9 -33 7 -30 -3 -99 31 -107 54 -4
8 0 19 8 25 17 13 28 67 17 85 -12 20 -156 -15 -190 -47 -37 -34 -100 -32
-148 6 -20 16 -48 30 -62 29 -14 0 -44 3 -67 7 l-43 8 0 -35 c0 -19 6 -43 14
-53 17 -23 5 -55 -20 -55 -9 0 -27 -9 -41 -19 -13 -11 -31 -17 -39 -14 -20 8
-94 -24 -126 -55 -17 -16 -28 -36 -28 -53 0 -14 -7 -32 -15 -39 -8 -7 -15 -21
-15 -31 0 -22 -4 -23 -31 -9 -10 6 -19 20 -19 30 0 11 -5 20 -11 20 -5 0 -9 8
-7 18 1 10 -5 36 -14 57 -9 22 -19 48 -22 58 -3 10 -10 15 -16 12 -15 -9 -12
-42 5 -49 9 -3 15 -18 15 -35 0 -16 4 -32 9 -35 8 -6 6 -53 -4 -83 -8 -23 -33
-14 -41 15 -4 15 -7 30 -6 34 1 5 -3 7 -10 5 -6 -1 -16 15 -21 36 -5 20 -15
37 -22 37 -7 0 -15 7 -18 14 -4 11 -1 13 10 9 17 -7 12 7 -13 37 -8 10 -10 21
-4 30 7 11 10 7 16 -15 l7 -28 19 22 c10 13 18 18 18 11 0 -10 3 -10 15 0 13
11 13 14 1 24 -8 6 -26 37 -40 68 -15 31 -31 60 -36 63 -6 3 -10 15 -10 26 0
11 -6 22 -14 25 -24 9 -30 79 -10 113 10 16 21 28 26 25 4 -3 8 2 8 11 0 8 6
24 12 35 12 19 15 18 58 -24 26 -26 64 -50 93 -59 57 -19 63 -7 8 18 -60 26
-107 82 -130 152 -22 65 -27 108 -13 117 4 2 27 -9 51 -25 50 -33 52 -33 104
-15 22 8 37 10 37 4 0 -6 11 -7 28 -3 15 4 50 9 77 11 39 4 54 10 68 29 23 31
52 34 44 4 -5 -19 -3 -20 48 -14 54 7 54 7 68 -26 8 -19 22 -43 30 -53 13 -17
13 -24 0 -55 -19 -47 -58 -88 -108 -114 -29 -15 -35 -22 -23 -25 10 -2 32 4
50 12 41 21 41 21 23 -14 -30 -57 9 -21 56 53 47 73 89 178 89 221 0 13 10 36
21 51 17 21 19 29 9 35 -9 6 -8 10 6 19 22 12 31 13 62 5z m778 -59 c4 -8 1
-22 -6 -30 -6 -8 -9 -19 -5 -25 4 -6 -2 -20 -14 -31 l-21 -20 0 29 c0 36 19
92 31 92 5 0 12 -7 15 -15z m-1600 -52 c-3 9 -1 17 4 17 6 0 10 -9 10 -21 0
-11 4 -18 9 -14 6 3 13 -11 16 -32 4 -21 13 -56 21 -78 l15 -40 -24 27 c-16
18 -31 26 -45 23 -19 -3 -22 1 -23 28 -1 18 -3 49 -5 71 -3 36 -2 37 12 20 14
-17 15 -17 10 -1z m-100 -357 c22 -22 18 -39 -6 -26 -11 6 -20 17 -20 25 0 19
8 19 26 1z m1654 -265 c0 -11 -4 -22 -9 -25 -11 -7 -23 22 -15 35 9 16 24 10
24 -10z m-711 -102 c24 -9 29 -14 19 -20 -7 -5 -23 -9 -35 -9 -13 0 -23 -4
-23 -9 0 -5 -15 -4 -35 2 -43 13 -40 30 6 38 19 4 34 7 35 8 1 0 16 -4 33 -10z
m-539 -89 c0 -5 -5 -10 -11 -10 -5 0 -7 5 -4 10 3 6 8 10 11 10 2 0 4 -4 4
-10z m891 -17 c27 -71 18 -128 -19 -115 -7 2 -12 -5 -12 -18 0 -11 -12 -32
-26 -45 -15 -14 -23 -29 -19 -36 5 -8 1 -9 -14 -4 -17 5 -21 2 -21 -13 0 -11
6 -23 13 -25 8 -4 8 -6 1 -6 -17 -1 -74 67 -74 88 0 24 -16 36 -67 51 -38 12
-41 14 -25 26 14 11 6 13 -59 14 -42 0 -105 3 -140 6 l-64 6 24 -20 c14 -11
18 -19 10 -20 -43 -3 -114 -29 -114 -41 0 -8 -9 -19 -20 -25 -11 -6 -24 -15
-28 -21 -5 -5 -6 3 -2 20 6 28 6 29 -12 13 -15 -14 -21 -14 -35 -4 -10 7 -18
18 -18 25 0 6 -5 11 -10 11 -6 0 -13 8 -17 18 -3 9 -15 29 -25 45 -46 66 -1
93 103 62 47 -14 60 -15 80 -4 15 8 70 13 154 14 72 1 159 5 194 10 47 6 62 5
57 -4 -4 -6 -3 -11 3 -11 5 0 12 6 15 13 5 10 7 10 12 0 7 -16 44 -17 44 -2 0
6 8 8 18 5 9 -3 24 -1 32 4 27 17 50 11 61 -17z m-881 -38 c0 -12 -19 -12 -23
0 -4 9 -1 12 9 8 7 -3 14 -7 14 -8z m294 -180 c-4 -15 -2 -25 5 -25 6 0 11 4
11 8 0 4 9 8 20 9 22 2 27 -12 8 -23 -10 -7 -42 -8 -77 -5 -19 2 -22 36 -5 48
29 21 45 16 38 -12z m424 -34 c4 -28 -13 -20 -21 9 -3 14 -1 20 6 17 7 -2 14
-14 15 -26z m-152 -1 c8 0 14 -7 14 -15 0 -9 -6 -12 -15 -9 -14 6 -19 -10 -16
-56 0 -10 -1 -11 -5 -2 -3 6 -10 12 -16 12 -15 0 -42 31 -43 51 -2 25 12 24
20 -1 9 -29 22 -24 30 13 4 17 9 26 12 20 2 -7 11 -13 19 -13z m-125 -33 c-8
-8 -11 -5 -11 9 0 27 14 41 18 19 2 -9 -1 -22 -7 -28z m-5 -64 c-10 -10 -19 5
-10 18 6 11 8 11 12 0 2 -7 1 -15 -2 -18z m1000 -176 c4 -4 -2 -7 -14 -7 -11
0 -23 4 -26 8 -6 10 30 9 40 -1z m51 -53 c3 -9 0 -19 -7 -24 -19 -12 16 -59
39 -53 13 3 20 -2 24 -18 7 -27 -11 -43 -30 -27 -10 8 -13 6 -13 -5 0 -9 5
-19 10 -22 6 -4 10 -24 8 -46 -1 -21 3 -44 10 -51 9 -9 12 -8 12 5 0 19 22 22
51 6 16 -8 18 -13 8 -25 -9 -12 -9 -17 2 -27 8 -7 25 -24 38 -40 24 -26 24
-28 6 -40 -17 -13 -17 -15 6 -30 15 -11 25 -13 29 -6 4 6 12 3 21 -7 9 -12 10
-15 2 -10 -18 10 -16 -5 3 -32 13 -20 12 -26 -7 -24 -3 1 -12 -10 -20 -24 -20
-37 -43 -47 -57 -23 -10 16 -9 19 3 19 10 0 15 10 15 30 0 20 5 30 15 30 12 0
14 4 7 17 -9 16 -72 25 -72 11 0 -5 7 -8 16 -8 8 0 12 -5 8 -11 -3 -6 0 -15 7
-20 10 -6 8 -9 -9 -9 -15 0 -26 7 -29 19 -3 12 -11 17 -19 14 -8 -3 -14 0 -14
6 0 6 7 11 16 11 10 0 14 6 11 14 -3 7 0 19 6 25 8 8 7 11 -6 11 -9 0 -17 -7
-17 -15 0 -8 -5 -15 -11 -15 -5 0 -9 17 -8 38 2 42 -9 82 -22 82 -5 0 -9 9 -9
20 0 11 -4 20 -10 20 -5 0 -10 11 -10 25 0 14 -6 25 -12 26 -10 0 -10 2 0 6
16 6 15 21 -3 39 -17 18 -20 34 -5 34 6 0 10 7 10 15 0 8 -7 15 -15 15 -9 0
-15 9 -15 25 0 14 -4 25 -10 25 -5 0 -10 8 -10 17 0 13 3 14 12 5 17 -17 29
-15 22 3 -4 8 -1 15 5 15 7 0 14 -7 18 -16z m27 -40 c3 -8 2 -12 -4 -9 -6 3
-10 10 -10 16 0 14 7 11 14 -7z m96 -122 c0 -15 -2 -15 -10 -2 -13 20 -13 33
0 25 6 -3 10 -14 10 -23z m-20 -10 c0 -4 -9 -13 -21 -20 -19 -12 -19 -11 -9 8
10 19 30 28 30 12z m44 -28 c9 -24 7 -31 -4 -14 -8 12 -12 13 -19 2 -7 -11 -9
-10 -14 3 -4 9 -3 13 3 10 6 -3 10 -1 10 4 0 17 17 13 24 -5z m-2159 -224 c-2
-11 -7 -26 -12 -33 -16 -26 -12 -37 9 -26 11 6 22 8 25 6 2 -3 -5 -10 -16 -17
-12 -6 -21 -17 -21 -26 0 -12 -4 -11 -21 5 -21 20 -21 20 -2 48 11 15 23 36
26 46 9 23 17 22 12 -3z m2267 -122 c-7 -7 -12 -8 -12 -2 0 14 12 26 19 19 2
-3 -1 -11 -7 -17z m-62 -38 c-4 -16 -5 -32 -2 -36 4 -3 -3 -1 -15 7 -17 10
-21 19 -16 39 9 37 13 42 28 30 9 -8 11 -20 5 -40z m-2210 -4 c0 -3 -4 -8 -10
-11 -5 -3 -10 -1 -10 4 0 6 5 11 10 11 6 0 10 -2 10 -4z m-15 -36 c3 -5 1 -10
-4 -10 -6 0 -11 5 -11 10 0 6 2 10 4 10 3 0 8 -4 11 -10z m-113 -91 c-19 -32
-32 -38 -32 -13 0 8 4 13 9 10 12 -8 22 20 14 42 -6 15 -4 15 9 4 15 -12 15
-16 0 -43z m2353 41 c3 -6 -4 -10 -17 -10 -18 0 -20 2 -8 10 19 12 18 12 25 0z
m-2220 -9 c3 -5 1 -12 -5 -16 -5 -3 -10 1 -10 9 0 18 6 21 15 7z"/>
<path d="M1362 1574 c2 -9 13 -23 25 -31 21 -14 22 -14 10 11 -14 30 -40 44
-35 20z"/>
<path d="M3170 459 c0 -5 5 -7 10 -4 6 3 10 8 10 11 0 2 -4 4 -10 4 -5 0 -10
-5 -10 -11z"/>
<path d="M2255 3960 c-3 -5 -2 -10 4 -10 5 0 13 5 16 10 3 6 2 10 -4 10 -5 0
-13 -4 -16 -10z"/>
<path d="M3010 1944 c0 -8 5 -12 10 -9 6 3 10 10 10 16 0 5 -4 9 -10 9 -5 0
-10 -7 -10 -16z"/>
<path d="M3104 107 c-7 -53 -6 -77 1 -78 17 -2 90 3 93 5 1 2 -13 30 -33 62
-19 32 -38 65 -43 73 -5 10 -12 -13 -18 -62z"/>
<path d="M3395 140 c-4 -6 -2 -17 4 -23 15 -15 25 -2 13 19 -7 12 -11 13 -17
4z"/>
<path d="M1151 74 c-16 -35 -14 -44 9 -44 15 0 20 7 20 29 0 39 -14 47 -29 15z"/>
</g>
</svg>
