<?xml version="1.0" standalone="no"?>
<!DOCTYPE svg PUBLIC "-//W3C//DTD SVG 20010904//EN"
 "http://www.w3.org/TR/2001/REC-SVG-20010904/DTD/svg10.dtd">
<svg version="1.0" xmlns="http://www.w3.org/2000/svg"
 width="1637.000000pt" height="1637.000000pt" viewBox="0 0 1637.000000 1637.000000"
 preserveAspectRatio="xMidYMid meet">
<metadata>
Created by potrace 1.14, written by Peter Selinger 2001-2017
</metadata>
<g transform="translate(0.000000,1637.000000) scale(0.100000,-0.100000)"
fill="#000000" stroke="none">
<path d="M9063 15783 c9 -2 23 -2 30 0 6 3 -1 5 -18 5 -16 0 -22 -2 -12 -5z"/>
<path d="M7600 15765 c-14 -8 -33 -16 -42 -19 -10 -3 -18 -14 -18 -24 0 -11
-7 -25 -15 -32 -8 -7 -15 -27 -16 -44 l-1 -31 -11 28 c-19 48 -67 32 -67 -23
0 -32 -18 -33 -111 -9 -73 19 -94 21 -109 11 -29 -18 -67 -15 -115 9 -39 20
-44 20 -86 5 -26 -9 -35 -15 -23 -16 30 0 50 -25 28 -34 -23 -9 -102 3 -137
21 -15 7 -32 11 -38 7 -6 -3 -45 -8 -87 -9 -43 -2 -104 -12 -137 -23 -47 -16
-101 -21 -255 -27 -202 -6 -226 -9 -269 -31 -14 -8 -38 -14 -52 -14 -33 0 -57
-26 -41 -42 9 -9 20 -9 45 0 38 13 97 16 97 4 0 -4 -35 -18 -77 -31 -43 -12
-86 -27 -96 -32 -9 -5 -43 -16 -75 -24 -125 -31 -136 -37 -152 -69 -8 -17 -29
-38 -47 -47 -17 -9 -43 -23 -57 -33 -14 -9 -64 -30 -111 -47 -61 -22 -93 -40
-114 -65 -17 -19 -34 -34 -39 -34 -5 0 -20 -9 -34 -19 -13 -11 -38 -23 -54
-27 -16 -4 -37 -18 -47 -31 -10 -13 -23 -23 -29 -23 -6 0 -46 -21 -91 -47 -73
-44 -267 -218 -267 -240 0 -5 -26 -34 -57 -63 -31 -30 -73 -71 -92 -90 -20
-19 -64 -59 -98 -88 -34 -30 -69 -70 -77 -90 -9 -21 -43 -75 -76 -122 -33 -47
-68 -96 -77 -110 -19 -28 -86 -110 -119 -147 -12 -13 -24 -36 -27 -52 -4 -16
-20 -43 -37 -61 -16 -17 -30 -34 -30 -38 0 -4 -16 -25 -35 -46 -19 -22 -35
-45 -35 -51 0 -7 -16 -26 -35 -44 -19 -17 -43 -48 -54 -69 -11 -20 -40 -61
-65 -91 -52 -59 -59 -71 -79 -127 -58 -162 -87 -263 -102 -349 -10 -55 -28
-120 -40 -145 -12 -25 -28 -70 -35 -100 -7 -30 -24 -77 -38 -105 -15 -27 -29
-75 -33 -105 -4 -30 -13 -77 -22 -105 -9 -27 -25 -81 -36 -119 -11 -38 -28
-77 -36 -86 -11 -12 -14 -26 -10 -43 5 -17 -2 -52 -19 -98 -14 -40 -26 -81
-26 -91 0 -10 -7 -35 -16 -56 -9 -20 -17 -64 -19 -98 -1 -46 -8 -69 -26 -93
-20 -27 -21 -35 -11 -52 10 -16 10 -31 -2 -77 -9 -37 -18 -160 -25 -348 -10
-259 -10 -295 5 -329 10 -25 17 -80 20 -169 5 -164 15 -220 88 -491 9 -33 27
-109 41 -170 28 -119 43 -165 55 -165 15 0 60 -141 60 -190 0 -10 8 -23 17
-28 17 -10 37 -71 52 -162 5 -30 21 -84 35 -119 14 -36 26 -68 26 -71 0 -4
-16 -27 -35 -51 -42 -52 -75 -121 -75 -158 0 -14 -7 -44 -15 -66 -25 -71 -17
-315 11 -315 18 0 26 -31 23 -103 -2 -61 17 -127 40 -141 6 -4 11 -18 11 -31
0 -18 4 -22 19 -18 16 4 22 -3 30 -34 6 -21 11 -42 11 -47 0 -4 20 -49 44
-100 24 -50 51 -121 60 -158 9 -37 23 -83 31 -102 21 -49 27 -124 11 -138 -10
-10 -10 -17 0 -38 26 -51 44 -98 44 -114 0 -9 4 -16 10 -16 5 0 12 -11 16 -25
7 -29 24 -34 24 -7 0 15 -10 49 -54 182 -7 19 -9 46 -5 60 4 14 7 48 8 77 1
28 5 55 11 58 6 3 10 17 10 30 0 41 19 38 26 -5 4 -22 12 -40 19 -40 7 0 18
-14 24 -30 6 -17 19 -43 31 -57 11 -15 18 -34 15 -47 -4 -16 3 -26 27 -41 18
-11 39 -33 48 -50 8 -16 23 -36 33 -43 9 -7 17 -20 17 -28 0 -8 7 -17 15 -20
23 -9 58 -72 61 -111 1 -19 14 -71 29 -115 32 -97 38 -122 39 -168 1 -32 -2
-36 -42 -50 -40 -14 -45 -13 -79 5 -21 11 -56 43 -79 72 -41 50 -54 56 -54 24
0 -24 99 -214 116 -224 8 -4 14 -17 14 -27 0 -11 6 -20 13 -20 12 0 47 -64 47
-87 0 -5 13 -28 30 -51 16 -22 32 -52 36 -66 3 -13 13 -27 21 -30 11 -5 14
-15 9 -37 -7 -37 2 -79 18 -79 6 0 20 -19 31 -42 11 -23 34 -56 50 -74 17 -17
45 -48 64 -68 19 -20 39 -36 44 -36 19 0 95 -88 105 -122 6 -18 16 -75 22
-125 6 -51 15 -104 20 -117 5 -14 8 -51 8 -83 -1 -38 4 -69 16 -91 10 -19 19
-56 22 -83 2 -28 9 -59 15 -70 6 -12 8 -32 4 -46 -3 -13 -1 -39 4 -56 5 -18
18 -68 27 -112 9 -44 20 -84 25 -90 7 -10 15 -42 59 -228 17 -73 28 -99 65
-147 48 -63 54 -84 29 -111 -14 -15 -14 -20 1 -54 8 -21 19 -61 25 -89 21
-115 28 -136 64 -177 20 -24 41 -61 47 -84 7 -22 29 -76 51 -121 39 -78 40
-85 48 -220 5 -76 13 -184 20 -239 6 -55 10 -142 8 -194 l-3 -95 -94 -65
c-299 -210 -768 -640 -961 -880 -45 -57 -127 -150 -155 -177 -12 -11 -24 -26
-26 -32 -2 -6 -30 -41 -63 -77 -32 -36 -117 -143 -188 -238 -71 -95 -142 -189
-158 -209 -17 -20 -30 -39 -30 -43 0 -3 -21 -35 -47 -70 -57 -77 -93 -127
-179 -246 -35 -49 -140 -167 -232 -261 -241 -249 -265 -272 -315 -299 -54 -28
-126 -77 -257 -174 -52 -38 -122 -88 -155 -110 -33 -22 -168 -122 -301 -222
-245 -185 -427 -313 -444 -313 -6 0 -10 -87 -10 -230 l0 -230 780 0 780 0 0
23 c0 42 15 49 29 12 l12 -35 507 0 507 0 42 83 c46 89 140 313 152 362 4 17
13 41 20 53 7 13 16 44 21 70 15 84 31 136 43 144 13 8 24 82 35 244 5 60 12
116 16 123 5 7 17 51 27 98 13 59 25 90 38 99 22 16 36 74 46 184 4 41 15 102
25 135 10 33 35 121 55 195 40 146 54 172 79 150 23 -19 40 0 61 68 9 31 30
92 46 135 16 43 29 86 29 96 0 9 4 21 9 26 9 10 37 79 48 120 11 42 76 167 90
172 23 9 40 -26 62 -122 25 -111 66 -401 70 -492 1 -43 27 -43 35 -1 3 18 6
40 5 48 -1 8 -3 75 -4 149 -1 73 -8 157 -15 185 -9 38 -9 58 -2 73 6 11 8 30
5 42 -3 13 0 47 7 77 12 48 11 56 -3 72 -20 22 -22 32 -6 32 18 0 38 32 39 61
0 14 11 36 25 49 14 13 25 32 25 43 0 10 9 26 20 35 12 10 21 28 21 42 1 44 9
71 19 65 6 -3 10 -1 10 4 0 6 9 20 21 32 l21 21 12 -23 c15 -31 52 -37 59 -10
8 32 43 25 84 -15 l37 -37 18 23 c17 21 18 21 24 4 17 -53 25 -77 35 -104 l11
-29 18 21 18 22 39 -27 c21 -15 51 -27 66 -27 15 0 27 -4 27 -8 0 -5 22 -24
50 -43 27 -19 50 -39 50 -46 0 -6 9 -18 19 -25 11 -8 21 -27 23 -43 2 -24 9
-30 38 -38 49 -12 60 -24 60 -64 0 -27 3 -34 15 -29 11 4 19 -3 25 -19 5 -14
14 -25 20 -25 5 0 10 -8 10 -17 0 -9 21 -38 47 -64 27 -26 53 -52 58 -58 6 -6
45 -43 87 -82 57 -53 79 -80 84 -104 3 -19 17 -44 31 -57 14 -12 31 -35 39
-51 8 -15 20 -27 28 -27 18 0 56 -43 56 -63 0 -10 8 -17 20 -17 11 0 20 -4 20
-8 0 -5 11 -14 25 -20 15 -7 35 -35 55 -76 31 -68 44 -83 55 -66 4 6 18 -3 33
-22 15 -19 36 -43 47 -55 11 -12 26 -29 33 -37 14 -18 42 -22 42 -6 0 6 8 10
18 10 19 0 44 -24 55 -53 4 -10 17 -17 32 -17 16 0 25 -6 25 -15 0 -18 26 -20
36 -4 5 8 10 6 16 -5 5 -9 20 -16 32 -16 13 0 26 -7 30 -15 3 -8 14 -15 24
-15 11 0 36 -7 55 -15 45 -19 101 -19 116 -1 12 14 57 10 67 -5 10 -16 22 -9
28 17 6 21 11 24 29 18 12 -4 28 -15 35 -25 16 -23 48 -25 60 -3 5 9 7 36 4
60 l-5 44 37 0 c20 0 36 5 36 10 0 6 8 10 18 10 15 0 17 7 14 41 -3 32 1 46
19 65 24 26 40 29 67 14 73 -42 152 -49 187 -16 l25 24 -25 4 c-16 4 -29 -1
-37 -13 -9 -13 -17 -16 -28 -10 -11 8 -8 15 20 40 42 37 71 47 98 32 36 -19
68 -13 80 14 6 14 9 30 7 37 -8 19 55 36 91 25 16 -5 43 -22 59 -38 17 -16 36
-29 43 -29 19 0 14 -14 -13 -40 -32 -30 -32 -40 0 -40 16 0 25 6 25 15 0 13 8
15 38 10 56 -10 62 -13 56 -29 -10 -25 12 -26 34 -1 25 28 37 31 49 12 4 -7
24 -24 43 -38 32 -24 42 -25 117 -21 69 3 82 7 86 23 3 10 13 19 22 19 13 0
16 -6 11 -25 -4 -15 -2 -25 4 -25 6 0 8 -5 4 -11 -3 -6 -1 -15 6 -19 14 -9 60
26 60 46 0 19 28 37 47 29 17 -6 17 -7 -1 -20 -12 -9 -16 -20 -12 -31 6 -16 8
-16 21 3 12 17 29 21 105 25 75 5 95 9 114 27 12 12 35 21 53 21 22 0 33 6 41
25 11 25 32 34 32 15 0 -21 26 -9 43 19 10 18 29 32 47 36 32 7 70 47 70 75 0
9 11 27 25 40 14 13 39 45 56 72 17 26 35 48 39 48 4 0 17 16 29 35 11 19 32
40 46 47 13 6 27 19 30 29 3 10 27 33 53 52 32 23 58 53 80 95 18 33 47 72 65
86 17 15 38 31 45 37 6 5 12 18 12 28 0 11 7 21 15 25 8 3 15 12 15 20 0 21
70 84 101 91 33 8 119 89 119 113 0 20 15 43 83 127 27 33 55 75 62 93 8 17
21 32 29 32 9 0 38 19 65 42 27 24 70 61 96 83 26 22 57 46 70 52 23 13 39 42
40 73 0 10 10 15 32 14 29 -2 33 1 39 32 4 24 23 48 70 90 47 42 63 63 58 76
-12 39 102 142 130 119 14 -12 36 4 36 26 0 7 11 13 25 13 18 0 28 7 35 24 8
22 15 24 63 24 52 -1 53 -1 49 -27 -2 -17 3 -32 12 -40 9 -8 16 -26 16 -42 0
-27 30 -69 49 -69 17 0 43 -51 32 -64 -7 -8 -3 -27 13 -61 13 -28 29 -70 36
-95 7 -25 18 -56 25 -70 7 -14 13 -51 14 -82 0 -31 6 -69 11 -84 6 -14 13 -50
16 -78 3 -28 10 -58 15 -68 11 -20 18 -81 19 -163 0 -65 14 -100 29 -77 4 8 6
26 4 40 -2 15 -6 61 -9 102 -2 41 -7 86 -11 100 -8 29 -8 25 -17 115 -4 39
-10 77 -13 85 -3 8 -7 37 -9 64 -2 27 -10 61 -18 76 -7 16 -11 40 -9 54 6 30
-15 126 -28 126 -5 0 -9 8 -8 18 0 10 3 12 6 5 2 -7 11 -13 19 -13 8 0 14 -7
14 -15 0 -8 9 -23 20 -32 11 -10 20 -21 20 -26 0 -5 12 -21 26 -36 14 -15 31
-36 37 -48 60 -106 93 -171 123 -243 20 -47 49 -112 64 -145 15 -33 39 -94 53
-135 14 -41 34 -95 43 -120 34 -90 137 -482 170 -645 13 -66 35 -175 49 -243
28 -137 41 -170 58 -153 18 18 37 12 47 -15 24 -63 66 -309 80 -464 9 -107 24
-164 51 -199 11 -13 19 -27 19 -32 0 -14 80 -178 90 -184 5 -3 15 -24 22 -46
6 -23 17 -43 24 -46 7 -3 23 -25 34 -49 12 -24 26 -44 31 -44 5 0 14 -11 19
-24 4 -13 32 -58 62 -101 29 -42 60 -88 69 -101 8 -13 30 -38 47 -56 59 -61
112 -129 112 -144 0 -12 29 -14 169 -14 126 0 171 3 174 13 4 9 6 9 6 0 1 -10
34 -13 132 -13 97 0 130 3 127 12 -3 7 -19 16 -37 21 -40 10 -66 63 -57 115 7
44 9 46 40 36 25 -9 62 -53 93 -112 20 -39 26 -40 41 -7 11 25 36 33 46 16 3
-5 -1 -14 -9 -21 -20 -16 -20 -60 0 -60 8 0 15 4 15 10 0 5 11 17 25 26 32 21
75 12 75 -16 0 -16 7 -20 32 -20 l31 0 -24 27 c-13 16 -27 29 -31 31 -17 8 -6
24 24 36 30 13 33 12 55 -14 12 -15 23 -40 23 -54 0 -23 4 -26 36 -26 l37 0
-6 43 c-8 58 10 78 35 39 10 -15 18 -39 18 -54 l0 -28 350 0 350 0 0 1138 0
1138 -42 24 c-24 13 -168 107 -321 209 -379 254 -606 396 -722 453 -27 14 -89
45 -136 70 -47 25 -96 49 -110 53 -13 4 -51 20 -84 35 -66 29 -206 84 -243 95
-13 4 -72 36 -130 72 -139 84 -125 76 -217 119 -44 21 -109 55 -144 76 -35 22
-86 48 -115 59 -127 49 -184 78 -438 224 -21 12 -102 84 -180 161 -123 120
-364 316 -436 353 -42 22 -50 50 -63 211 -21 256 -10 339 53 402 61 61 81 107
71 165 -6 33 -5 59 4 83 6 19 12 49 13 65 0 41 23 110 52 166 36 66 40 101 21
167 -25 89 -27 126 -9 141 10 8 16 29 16 53 0 21 7 52 15 68 11 22 16 76 19
215 3 120 9 191 16 200 8 9 15 94 20 232 9 232 23 371 40 403 5 10 10 28 10
39 0 20 62 91 80 91 6 0 10 5 10 10 0 6 -8 10 -17 8 -12 -2 -19 7 -24 32 -14
66 15 190 45 190 18 0 70 60 96 110 11 21 27 43 36 48 12 7 14 17 9 45 -4 20
-9 37 -12 37 -2 0 -21 -13 -41 -29 -47 -37 -86 -44 -108 -20 -22 24 -22 86 -1
124 53 96 64 130 59 188 -3 52 -6 58 -23 54 -21 -6 -26 6 -32 88 -4 44 12 386
18 393 1 1 36 6 78 11 112 13 137 32 194 148 45 91 46 96 28 109 -10 8 -22 14
-25 14 -4 0 -12 39 -19 88 -7 48 -15 102 -18 120 -3 22 0 39 10 50 9 9 18 29
22 44 4 14 14 33 24 42 15 14 20 14 46 0 17 -8 37 -24 46 -36 10 -13 23 -19
33 -15 9 4 16 3 16 -2 0 -5 12 -11 28 -14 33 -7 58 20 68 73 4 19 18 54 32 78
17 31 23 52 19 75 -7 47 2 89 19 83 10 -4 14 3 14 20 0 86 24 326 36 362 8 23
14 58 14 77 0 18 4 36 9 39 5 3 6 26 4 50 -4 33 0 56 17 90 20 43 29 123 16
144 -8 13 14 84 31 104 10 11 17 43 19 84 2 37 9 82 16 100 9 26 9 37 0 46
-15 15 -16 50 -2 64 6 6 13 44 15 85 4 56 9 77 23 89 22 17 44 91 41 135 -3
34 6 55 25 55 17 0 42 98 28 112 -13 13 -5 37 20 61 13 12 18 32 18 67 0 27 5
61 10 76 8 20 7 31 -3 43 -8 9 -18 49 -21 89 -8 81 6 115 44 105 19 -5 37 28
25 47 -7 11 -36 151 -41 195 -1 17 -6 48 -10 71 -4 28 -1 50 10 71 8 17 12 33
9 37 -10 9 -16 140 -14 271 0 34 -38 138 -75 202 -27 47 -31 104 -9 123 19 16
12 40 -26 97 -16 23 -29 48 -29 55 0 26 -48 114 -87 158 -21 25 -51 65 -64 90
-14 25 -41 69 -59 98 -31 49 -33 56 -22 86 17 47 16 50 -28 102 -23 25 -44 59
-47 75 -3 16 -9 32 -14 35 -4 2 -4 15 2 28 8 17 7 36 -4 74 -9 27 -13 53 -10
56 4 3 -8 9 -26 12 -29 6 -32 10 -28 32 7 34 -7 68 -41 102 -15 16 -45 52 -67
80 -22 28 -55 65 -72 83 -50 50 -83 99 -83 124 0 31 -62 125 -132 198 -102
108 -110 119 -124 151 -7 18 -25 41 -39 52 -14 11 -35 43 -46 71 -12 28 -29
53 -38 56 -10 3 -28 24 -41 48 -13 23 -26 44 -30 47 -4 3 -11 12 -16 21 -8 15
-61 62 -139 124 -16 14 -45 36 -63 51 -18 15 -40 44 -48 64 -8 21 -25 42 -37
48 -27 12 -141 111 -146 126 -6 20 -85 98 -124 123 -21 13 -47 39 -58 57 -11
19 -36 41 -59 51 -21 10 -49 29 -62 42 -13 14 -35 31 -50 39 -37 19 -35 34 2
34 17 0 30 4 30 9 0 14 -96 94 -153 126 -29 17 -82 49 -117 72 -36 24 -72 43
-81 43 -9 0 -28 9 -42 20 -14 11 -33 20 -44 20 -17 1 -17 1 0 14 9 7 17 16 17
20 0 11 -80 86 -92 86 -5 0 -28 13 -51 28 -55 37 -84 50 -132 61 -22 5 -63 18
-91 29 -28 10 -74 22 -103 26 -29 4 -63 13 -75 21 -11 8 -55 17 -96 20 -41 3
-88 7 -104 8 -20 1 -32 -4 -40 -18 -15 -28 -27 -35 -58 -35 -32 0 -127 -24
-157 -39 -11 -6 -30 -16 -41 -21 -12 -6 -38 -10 -58 -10 -20 0 -60 -2 -89 -6
-29 -4 -64 -3 -79 0 -26 7 -26 7 -8 28 l19 20 -72 -7 c-59 -6 -77 -4 -101 10
-40 24 -32 47 27 81 25 15 50 33 54 41 5 7 25 13 48 13 22 0 58 9 81 21 36 18
39 23 24 31 -10 5 -33 7 -51 4 -33 -6 -136 -57 -165 -81 -8 -6 -23 -15 -32
-18 -10 -4 -18 -11 -18 -17 0 -5 -11 -10 -24 -10 -14 0 -28 -4 -31 -10 -9 -15
-52 -12 -86 5 -16 9 -34 13 -40 9 -18 -11 -53 5 -98 45 l-44 39 -136 4 c-75 2
-145 9 -156 15 -15 8 -28 8 -54 -3 -43 -18 -98 -18 -108 1 -11 19 -196 33
-216 16 -11 -9 -17 -8 -27 4 -15 18 -46 18 -80 0z m-620 -295 c0 -5 -2 -10 -4
-10 -3 0 -8 5 -11 10 -3 6 -1 10 4 10 6 0 11 -4 11 -10z m3096 -189 c10 -5 42
-20 69 -31 28 -12 85 -39 129 -61 43 -21 83 -39 89 -39 14 0 90 -51 100 -67 4
-7 16 -13 25 -14 10 0 12 -3 5 -6 -22 -8 -120 17 -144 38 -12 10 -30 19 -40
19 -10 0 -20 4 -23 9 -3 5 -43 14 -88 20 -83 12 -99 15 -213 45 -33 9 -71 17
-83 18 -18 2 -27 13 -37 40 -7 21 -10 40 -6 44 9 10 195 -3 217 -15z m1397
-1438 c-7 -2 -19 -2 -25 0 -7 3 -2 5 12 5 14 0 19 -2 13 -5z m-2021 -1077 c49
-61 100 -96 142 -96 30 0 38 -5 46 -25 10 -25 21 -31 34 -18 4 4 33 8 64 9 31
1 62 3 67 4 6 1 36 2 68 1 44 -1 62 -6 79 -23 20 -20 31 -21 145 -21 109 1
124 -1 133 -17 5 -10 21 -21 35 -24 30 -8 59 -62 59 -111 1 -23 6 -31 26 -35
14 -3 34 -12 45 -20 19 -14 56 -81 70 -124 4 -15 8 -17 17 -8 31 31 63 -11 78
-104 9 -54 -8 -173 -31 -215 -10 -20 -6 -135 9 -268 8 -69 14 -88 32 -103 32
-26 38 -23 50 23 10 36 13 40 26 27 8 -7 19 -41 25 -73 6 -33 20 -79 30 -102
16 -36 23 -43 47 -43 21 0 32 -8 46 -35 16 -29 25 -35 52 -35 29 0 35 -4 40
-27 12 -55 20 -77 32 -81 7 -2 12 7 12 22 0 14 5 26 10 26 6 0 10 -6 10 -14 0
-8 7 -17 15 -20 13 -5 16 -25 14 -118 -2 -91 1 -119 15 -147 10 -18 19 -58 21
-88 2 -31 9 -59 15 -63 17 -10 -4 -22 -24 -14 -31 12 -31 -26 0 -51 27 -22 29
-28 27 -87 -1 -34 1 -55 3 -45 3 9 12 17 20 17 19 0 19 -56 -1 -64 -19 -7 -20
-84 -2 -111 19 -29 37 -116 44 -219 3 -58 11 -97 20 -108 31 -35 29 -246 -2
-234 -20 7 -39 -52 -23 -71 10 -12 7 -18 -12 -33 l-23 -17 20 -29 c13 -19 19
-39 16 -54 -3 -18 2 -32 16 -44 13 -12 21 -31 21 -51 l0 -31 -72 8 c-59 7 -76
13 -88 31 -29 42 -115 123 -170 160 -54 36 -58 36 -160 39 -80 2 -112 7 -135
20 -16 10 -38 18 -48 18 -11 0 -31 13 -45 28 -69 73 -207 142 -247 124 -78
-34 -123 -42 -190 -30 -15 2 -21 -3 -23 -21 -3 -19 -8 -22 -30 -17 -93 21 -95
21 -90 -7 8 -43 -4 -50 -82 -48 -56 2 -76 -1 -91 -15 -17 -15 -24 -16 -58 -4
-22 7 -54 10 -72 8 -19 -3 -47 -1 -63 3 -19 5 -34 5 -40 -1 -6 -6 -24 -10 -41
-10 -16 0 -45 -9 -63 -20 -18 -11 -39 -20 -47 -20 -7 0 -16 -9 -20 -19 -4 -13
-19 -22 -48 -26 -22 -4 -48 -11 -57 -15 -8 -4 -26 -13 -40 -19 -14 -7 -36 -18
-51 -26 -14 -8 -56 -19 -95 -24 -98 -13 -153 -29 -181 -50 -13 -11 -32 -17
-43 -14 -17 5 -20 0 -20 -31 0 -23 -4 -35 -10 -31 -12 8 -60 -34 -60 -52 0 -7
-5 -13 -11 -13 -7 0 -27 -16 -46 -36 -21 -23 -39 -34 -49 -30 -11 4 -30 -9
-59 -40 l-42 -46 -99 -9 c-126 -12 -174 -25 -199 -55 -29 -35 -93 -37 -137 -4
-30 23 -44 25 -148 28 -63 2 -122 6 -130 9 -8 3 -23 5 -32 4 -9 -1 -32 14 -51
33 -20 19 -47 38 -61 42 -15 3 -29 10 -32 16 -3 5 -17 13 -30 18 -13 5 -24 17
-24 27 -1 30 -27 55 -60 58 -17 1 -36 9 -43 17 -17 21 -73 52 -132 73 -53 19
-150 79 -163 99 -11 19 -101 39 -167 38 -42 -1 -64 3 -78 15 -35 32 -90 47
-177 47 -47 1 -102 -2 -122 -6 -28 -5 -38 -3 -38 6 0 19 -37 27 -67 15 -36
-13 -136 -7 -149 10 -7 9 -31 13 -74 12 -38 -1 -69 4 -78 11 -8 7 -31 13 -51
13 -31 0 -36 3 -35 23 0 19 -4 22 -40 22 -61 0 -205 -37 -252 -65 -23 -13 -47
-37 -53 -53 -22 -53 -107 -97 -208 -108 -77 -8 -158 -32 -173 -49 -7 -8 -17
-15 -23 -15 -5 0 -24 -15 -42 -32 -18 -18 -68 -61 -113 -96 -48 -38 -82 -73
-86 -87 -5 -18 -13 -25 -30 -25 -24 0 -36 17 -36 49 0 10 -11 23 -25 29 -29
13 -35 59 -10 68 12 5 13 10 4 20 -6 8 -8 21 -5 30 4 9 0 24 -8 33 -10 12 -12
31 -6 81 6 45 5 69 -3 79 -7 8 -12 33 -13 55 0 23 -9 61 -18 86 -17 43 -17 47
0 97 10 30 25 55 34 58 20 6 35 62 21 79 -4 6 -9 33 -10 59 -1 27 -6 58 -12
69 -10 19 0 89 22 146 5 13 9 32 9 43 0 11 16 48 36 82 33 57 35 62 18 74 -16
12 -21 61 -15 148 3 30 -36 57 -71 50 -15 -4 -28 -4 -28 0 0 13 23 50 36 58
24 14 46 66 36 84 -11 18 -4 53 9 53 15 0 10 40 -6 46 -10 4 -14 21 -14 61 1
45 4 56 21 62 23 8 34 67 16 88 -6 8 -1 26 16 58 32 57 34 90 6 82 -25 -7 -28
28 -3 55 12 14 16 36 15 94 -1 42 -7 83 -13 90 -12 15 -4 100 11 119 4 6 11
25 15 43 3 17 11 32 16 32 6 0 8 9 4 19 -10 33 57 150 114 199 27 23 52 42 54
42 3 0 20 15 39 33 122 118 194 177 268 220 154 90 203 97 545 86 374 -12 540
-19 636 -25 46 -3 159 -10 251 -14 92 -5 172 -11 176 -14 25 -15 254 -4 365
18 39 8 115 18 167 21 57 5 110 14 131 25 26 12 42 14 54 7 23 -13 127 -1 165
18 16 8 42 15 59 15 43 0 59 9 54 30 -9 34 112 59 288 59 35 1 52 7 73 26 30
27 47 31 78 14 29 -16 98 13 123 51 11 16 28 30 37 30 9 0 23 9 30 19 18 25
89 29 138 8 45 -19 146 -20 182 -1 21 11 33 12 47 4 30 -16 79 -12 99 8 11 11
29 16 55 14 31 -3 37 0 37 16 0 10 3 21 6 25 12 12 69 -6 86 -27z m-4432
-1511 c0 -8 -4 -15 -10 -15 -5 0 -10 7 -10 15 0 8 5 15 10 15 6 0 10 -7 10
-15z m6960 -1490 c0 -3 -15 -49 -32 -102 -30 -89 -38 -103 -99 -165 -36 -37
-71 -68 -77 -68 -7 0 -12 -3 -12 -8 0 -11 -107 -92 -113 -85 -4 3 1 19 10 36
9 17 20 66 24 109 7 56 15 84 29 98 11 11 23 20 28 20 6 0 41 28 97 78 6 5 24
25 41 45 18 21 43 37 60 40 16 2 32 5 37 6 4 0 7 -1 7 -4z m-1843 -116 c137 0
179 -7 160 -26 -3 -2 -128 -7 -279 -9 -150 -3 -286 -9 -302 -15 -39 -12 -300
-11 -268 2 13 5 38 11 55 13 18 2 61 9 97 15 139 25 198 30 290 25 52 -2 164
-4 247 -5z m-3456 -159 c130 -16 150 -20 144 -29 -7 -12 -668 -2 -679 10 -6 5
13 9 50 10 32 1 118 5 189 8 203 12 207 12 296 1z m289 -50 c0 -12 -49 -12
-105 -1 -36 8 -33 9 33 10 42 1 72 -3 72 -9z m4665 -120 c3 -5 -1 -10 -9 -10
-8 0 -20 -8 -25 -17 -9 -16 -10 -16 -11 3 0 11 3 24 7 27 10 10 31 8 38 -3z
m-7464 -16 c6 -8 19 -14 29 -14 10 0 23 -6 29 -14 7 -8 26 -18 42 -21 16 -4
29 -11 29 -16 0 -5 11 -9 24 -9 13 0 34 -8 47 -19 13 -10 31 -20 39 -23 10 -4
6 -8 -13 -13 -15 -4 -32 -16 -38 -27 -9 -16 -7 -23 10 -35 12 -8 21 -20 21
-27 0 -7 14 -25 30 -41 17 -16 30 -32 30 -37 0 -13 -46 -9 -76 7 -16 8 -37 15
-46 15 -10 0 -18 5 -18 10 0 6 -5 10 -11 10 -14 0 -99 41 -115 55 -7 6 -24 19
-38 29 -14 10 -26 24 -26 31 0 6 -22 35 -50 63 -46 47 -58 70 -45 83 12 12
135 6 146 -7z m2104 -54 c22 -5 57 -8 79 -8 48 0 66 -16 44 -38 -12 -12 -49
-19 -144 -25 -70 -5 -142 -13 -159 -18 -17 -4 -41 -4 -54 1 -14 5 -45 5 -74
-1 -27 -5 -60 -6 -74 -2 l-25 7 22 19 c12 11 26 31 31 44 7 18 14 22 34 17 13
-3 27 -1 31 5 4 7 23 9 48 6 22 -2 52 -1 66 3 28 8 115 3 175 -10z m2015 -153
c11 -3 10 -6 -5 -11 -53 -19 -85 -41 -85 -57 0 -27 53 -99 108 -146 60 -51 82
-95 82 -162 0 -102 112 -395 209 -546 24 -38 59 -92 77 -120 17 -27 48 -75 67
-105 34 -54 72 -100 210 -253 78 -85 147 -137 184 -137 l24 0 -30 44 c-17 25
-73 88 -123 141 -51 53 -97 104 -101 112 -10 17 0 33 11 17 9 -12 193 -104
210 -104 7 0 40 -11 75 -25 71 -30 237 -65 303 -65 114 0 -2 60 -231 119 -85
22 -234 121 -348 230 -86 82 -169 199 -183 258 -4 15 -13 38 -20 52 -8 14 -14
36 -14 48 0 12 -4 23 -10 25 -5 2 -11 22 -13 45 -3 24 -10 50 -18 59 -9 11
-10 20 -3 32 17 26 32 25 39 -5 3 -15 16 -41 29 -56 l23 -29 12 34 c7 18 21
50 31 71 14 29 17 44 9 60 -20 44 51 159 107 173 24 6 95 0 276 -24 31 -4 66
-16 76 -25 16 -15 32 -17 91 -13 48 4 78 2 91 -7 15 -9 24 -9 39 0 14 9 21 9
30 0 8 -8 15 -6 25 9 13 16 26 19 100 18 99 -1 112 -8 127 -70 l11 -44 20 37
c16 29 18 41 9 55 -15 24 -15 25 13 30 28 6 46 -8 46 -34 0 -13 8 -18 33 -20
65 -3 103 -1 124 6 22 7 83 -13 74 -24 -2 -3 1 -15 8 -27 14 -27 60 -31 118
-9 21 8 65 17 97 20 33 4 65 11 72 17 12 10 132 9 162 -1 8 -3 19 2 24 11 8
12 5 23 -12 47 -27 36 -20 53 13 33 52 -33 113 -24 167 26 56 50 127 93 147
88 15 -3 25 1 32 12 9 16 10 15 11 -6 0 -14 7 -33 16 -42 19 -21 21 -130 4
-203 -5 -22 -12 -58 -15 -78 -7 -42 -11 -45 -42 -23 -30 21 -71 2 -75 -34 -3
-27 -38 -44 -38 -18 0 18 -26 41 -38 33 -14 -8 -1 -66 14 -66 11 0 14 -14 13
-57 0 -34 6 -74 15 -96 15 -34 18 -36 32 -22 8 8 20 15 25 15 5 0 14 10 19 23
8 21 9 21 9 -5 1 -15 -3 -30 -9 -33 -5 -3 -10 -13 -10 -21 0 -32 -86 -159
-152 -224 -119 -120 -160 -145 -465 -292 -35 -17 -63 -37 -63 -44 0 -11 -17
-14 -67 -14 -38 0 -75 -5 -83 -10 -25 -16 75 -12 190 9 278 50 500 174 638
356 29 37 61 75 73 83 18 12 22 12 40 -4 10 -9 19 -22 19 -29 0 -6 11 -17 25
-23 14 -6 25 -18 25 -25 0 -7 14 -29 30 -47 32 -36 37 -54 19 -66 -7 -4 -9
-25 -7 -55 3 -27 1 -49 -3 -49 -5 0 -9 -6 -9 -12 0 -14 59 -58 77 -58 15 0 45
-48 38 -60 -10 -17 4 -48 25 -53 16 -4 19 -16 22 -82 2 -42 0 -82 -4 -89 -5
-7 -8 -5 -8 7 0 10 -11 22 -25 27 -14 5 -25 14 -25 20 0 5 -4 10 -10 10 -23 0
-9 -49 21 -75 25 -20 32 -34 32 -63 1 -44 -10 -92 -21 -92 -14 0 -33 68 -26
95 7 27 -12 49 -59 67 -25 11 -33 -15 -13 -44 9 -12 16 -33 16 -46 0 -29 28
-72 46 -72 18 0 18 -19 -1 -65 -9 -20 -13 -45 -10 -56 4 -12 1 -21 -9 -25 -21
-8 -56 -66 -56 -93 0 -29 -11 -26 -45 9 -36 38 -55 38 -55 2 0 -21 -7 -32 -26
-41 -21 -9 -25 -16 -20 -36 5 -20 3 -25 -14 -25 -16 0 -20 -7 -20 -34 0 -63
62 -79 68 -17 l3 33 25 -33 c13 -18 24 -38 24 -45 0 -6 -18 -26 -40 -44 -33
-27 -40 -39 -40 -68 l0 -35 -26 28 c-16 17 -23 34 -19 44 7 18 8 21 6 39 -2
23 -29 12 -60 -24 -18 -20 -31 -41 -29 -47 2 -7 27 -23 56 -37 58 -28 63 -35
30 -46 -29 -9 -38 -22 -38 -56 0 -36 -16 -44 -24 -13 -4 14 -13 25 -22 25 -11
0 -14 -9 -12 -37 3 -37 4 -38 41 -35 22 2 37 -1 37 -7 0 -6 9 -20 19 -30 11
-11 24 -43 29 -71 9 -47 8 -54 -16 -82 l-25 -30 18 -54 c10 -30 22 -54 27 -54
4 0 8 -6 8 -13 0 -8 -10 -13 -22 -13 -21 1 -23 -4 -26 -66 -2 -37 2 -76 7 -87
8 -15 6 -22 -10 -32 -19 -14 -19 -15 -3 -62 11 -33 15 -65 11 -98 -7 -53 6
-104 23 -94 19 12 50 -6 50 -27 0 -12 7 -29 16 -39 14 -16 14 -22 3 -48 l-14
-31 -10 38 c-10 33 -14 37 -48 40 -21 2 -45 -2 -53 -9 -11 -9 -17 -9 -29 1
-21 17 -34 4 -41 -40 -7 -41 -24 -45 -24 -6 0 27 -42 76 -65 76 -8 0 -15 -7
-15 -15 0 -17 -35 -21 -45 -5 -11 17 -33 11 -40 -11 -6 -18 -8 -19 -24 -5 -10
9 -22 12 -30 6 -8 -5 -24 -4 -37 2 -32 15 -54 -5 -54 -49 0 -44 -16 -73 -39
-73 -10 0 -23 -12 -30 -27 l-12 -26 -20 32 c-10 17 -19 37 -19 44 0 6 -24 34
-54 62 -51 48 -54 53 -66 127 -8 50 -19 83 -31 94 -11 10 -19 23 -19 31 0 22
-46 95 -81 127 -27 26 -34 28 -59 19 -32 -12 -44 -6 -96 41 -32 29 -36 38 -32
67 5 34 -8 79 -23 79 -4 0 -28 16 -54 35 -25 20 -51 33 -56 29 -6 -3 -26 8
-44 26 -21 20 -40 30 -49 27 -22 -9 -20 -23 8 -82 14 -27 20 -52 15 -53 -5 -2
-25 8 -44 22 -18 14 -39 26 -46 26 -6 0 -34 16 -60 35 -55 40 -58 40 -84 21
-16 -11 -17 -17 -7 -29 16 -19 0 -31 -29 -22 -17 6 -18 9 -7 22 10 12 9 18 -7
29 -26 19 -39 18 -61 -7 -19 -21 -58 -19 -78 5 -6 6 -32 29 -58 49 -26 21 -50
46 -53 58 -9 26 -31 19 -27 -9 3 -18 -2 -22 -22 -22 -14 0 -26 4 -26 9 0 6
-12 23 -26 38 -14 15 -31 39 -36 53 -14 36 0 90 28 112 55 44 72 93 79 234 7
128 7 132 -15 152 -20 19 -31 21 -84 15 -34 -3 -79 -13 -101 -22 -84 -36 -308
-85 -355 -77 -53 8 -90 -13 -191 -110 -117 -111 -152 -129 -243 -119 -39 4
-87 7 -106 7 -19 0 -66 5 -103 10 -62 9 -74 15 -131 63 -135 115 -191 156
-229 167 -36 11 -40 10 -57 -12 -23 -31 -52 -29 -181 14 -73 24 -128 36 -178
38 -66 3 -74 1 -92 -21 -17 -21 -18 -34 -13 -125 5 -83 12 -113 36 -168 17
-37 38 -70 48 -73 9 -3 28 -17 41 -31 l24 -25 -48 -45 c-26 -25 -47 -51 -47
-59 0 -7 -6 -20 -13 -27 -7 -7 -18 -22 -25 -33 -11 -20 -11 -20 -12 2 0 12 5
23 12 25 17 6 2 38 -18 38 -10 0 -37 -11 -60 -25 -33 -20 -45 -33 -49 -59 l-7
-33 -45 8 c-49 9 -63 6 -63 -16 0 -15 -38 -55 -52 -55 -4 0 -8 9 -8 19 0 27
-20 38 -32 17 -5 -9 -20 -16 -33 -16 -20 0 -25 5 -25 24 0 40 -17 39 -56 -4
-20 -22 -42 -40 -49 -40 -7 0 -18 -7 -25 -15 -17 -21 -70 -20 -70 1 0 13 -6
12 -32 -8 -18 -13 -44 -29 -58 -36 -51 -26 -68 -39 -169 -138 -84 -82 -103
-106 -98 -123 4 -15 -4 -31 -24 -54 l-29 -32 21 -16 c18 -14 20 -22 14 -59 -6
-35 -12 -45 -36 -53 -19 -8 -29 -19 -29 -32 0 -11 -14 -35 -30 -54 -33 -37
-39 -75 -14 -89 10 -6 14 -16 10 -29 -5 -15 -13 -18 -40 -15 -19 2 -42 13 -52
23 -9 10 -23 19 -29 19 -7 0 -29 16 -49 35 -21 19 -42 35 -48 35 -7 0 -9 15
-5 42 5 35 2 44 -18 60 -36 28 -41 70 -14 117 26 46 20 71 -16 71 -24 0 -26 3
-23 38 2 30 7 38 27 40 13 2 26 12 28 23 3 10 9 19 14 19 5 0 9 12 9 26 l0 26
-34 -26 c-19 -14 -40 -26 -47 -26 -36 0 -96 126 -86 178 4 21 1 31 -14 40 -16
10 -18 19 -13 52 8 49 -6 57 -75 43 l-49 -10 -20 43 c-12 24 -41 70 -65 103
-33 44 -43 66 -40 85 4 18 -2 32 -21 51 -14 14 -26 36 -27 48 0 12 -4 31 -8
42 -5 11 -5 28 0 37 14 27 1 46 -27 40 -14 -2 -28 -11 -31 -18 -8 -22 -23 -5
-23 27 0 16 -5 29 -11 29 -6 0 -8 7 -5 17 7 17 -34 85 -101 170 -31 39 -33 46
-27 93 7 50 7 50 -25 56 -35 7 -47 19 -31 29 8 5 6 13 -5 25 -9 10 -19 35 -22
56 -3 22 -15 51 -26 65 -23 32 -34 113 -19 132 6 7 9 23 5 35 -3 12 0 29 7 37
6 8 9 18 6 23 -3 5 -1 26 5 47 10 34 12 36 27 22 14 -15 19 -15 50 5 33 20 35
20 63 4 29 -17 29 -17 38 6 5 13 5 30 0 40 -11 21 16 88 36 88 25 0 29 23 6
41 -26 21 -20 39 14 39 18 0 22 4 18 20 -3 10 2 26 11 35 12 12 13 21 6 35 -6
10 -9 27 -9 37 1 17 2 17 6 0 3 -10 27 -41 54 -70 27 -28 49 -55 49 -59 0 -14
207 -191 260 -222 60 -35 181 -85 271 -110 55 -16 129 -22 129 -10 0 15 -76
74 -108 85 -64 20 -207 95 -263 136 -69 52 -135 116 -189 184 -43 55 -120 201
-120 230 0 8 -7 24 -15 35 -8 10 -15 28 -15 39 0 11 -7 33 -15 49 -8 15 -15
41 -15 58 0 16 -6 41 -14 56 -30 59 -43 284 -20 324 10 17 156 -57 182 -91 14
-20 40 -35 79 -47 32 -10 66 -27 75 -39 10 -11 29 -35 44 -52 20 -25 34 -33
59 -33 19 0 37 -4 40 -10 13 -21 35 -9 50 26 8 19 14 41 12 47 -1 8 16 12 50
13 43 1 58 6 88 33 44 39 52 39 60 1 9 -42 23 -47 52 -16 13 15 28 24 33 21
11 -7 2 -35 -11 -35 -11 0 -12 -37 0 -44 4 -3 22 12 39 34 29 35 38 39 89 45
32 3 74 10 95 14 20 5 42 5 49 1 7 -5 18 -6 26 -3 11 4 11 9 -3 24 -16 18 -16
19 15 19 20 0 30 -4 26 -11 -4 -5 -4 -22 0 -37 l7 -27 14 28 c9 17 23 27 37
27 13 0 27 4 32 9 11 11 34 14 88 12 30 -1 37 -5 37 -20 0 -29 17 -35 30 -11
8 16 21 20 59 20 54 0 66 6 46 26 -9 9 -24 12 -44 8 -28 -6 -31 -4 -25 12 18
48 127 164 155 164 23 0 83 -76 75 -96 -3 -8 -22 -22 -41 -30 -19 -8 -35 -16
-35 -18 0 -3 -3 -12 -6 -21 -6 -15 2 -17 92 -12 54 3 146 16 204 29 64 14 121
21 145 18 39 -5 40 -7 51 -55 6 -27 14 -65 19 -83 4 -18 27 -55 51 -81 24 -27
44 -51 44 -54 0 -2 10 -26 21 -53 19 -43 23 -46 34 -30 11 14 17 15 34 6 21
-11 26 -34 15 -64 -5 -13 -10 -14 -20 -5 -7 6 -21 9 -31 6 -14 -4 -13 -5 5 -6
20 -1 22 -6 22 -49 0 -26 -4 -52 -9 -57 -5 -6 -21 -39 -36 -74 -28 -67 -71
-125 -165 -224 -73 -78 -146 -127 -314 -213 l-139 -71 44 -11 c70 -17 173 11
313 86 52 28 96 41 96 28 0 -11 -46 -84 -73 -115 -34 -39 -60 -97 -52 -111 23
-37 114 38 173 142 18 30 63 98 100 149 38 52 77 113 88 134 10 22 33 62 51
90 18 27 47 83 64 125 16 41 36 89 44 105 55 117 115 344 115 433 0 31 5 75
11 97 15 56 65 131 103 154 50 32 81 79 70 110 -8 22 -17 27 -57 31 -47 6 -91
30 -54 30 10 0 32 7 50 17 94 48 118 51 250 32 67 -11 129 -20 137 -22z m1394
34 c3 -5 0 -11 -8 -14 -15 -6 -26 1 -26 15 0 11 27 10 34 -1z m-3197 -137 c-3
-4 -14 -3 -24 0 -15 6 -15 8 -3 16 16 10 39 -4 27 -16z m4793 -104 c-20 -15
-24 -26 -24 -83 -1 -54 -4 -67 -19 -71 -14 -3 -17 -14 -15 -63 3 -53 1 -58
-19 -61 -18 -3 -24 -12 -29 -43 -5 -31 -13 -43 -31 -50 -50 -19 -50 -24 -25
167 5 38 14 80 21 91 6 12 11 37 11 57 0 40 12 53 30 31 21 -26 59 -19 66 13
4 15 14 38 23 51 l15 24 10 -23 c8 -18 6 -25 -14 -40z m-1836 -46 c36 -36 66
-68 66 -69 0 -2 -14 -6 -30 -10 -22 -5 -42 -1 -71 14 -22 12 -48 21 -58 21
-26 0 -43 44 -29 75 9 21 21 29 50 34 3 0 36 -29 72 -65z m-654 -4 c0 -5 -2
-10 -4 -10 -3 0 -8 5 -11 10 -3 6 -1 10 4 10 6 0 11 -4 11 -10z m1220 -27
c-14 -3 -33 -13 -43 -24 -12 -12 -31 -19 -57 -19 -44 0 -53 13 -17 25 12 5 31
11 42 15 11 5 38 8 60 8 26 -1 31 -2 15 -5z m-3774 -161 c-15 -2 -35 0 -44 3
-15 6 -15 8 3 15 11 4 31 2 45 -4 l25 -11 -29 -3z m-1300 -21 c-4 -28 -2 -42
9 -51 21 -17 34 -4 41 41 7 42 24 64 24 30 0 -11 6 -24 13 -28 12 -8 24 -49
48 -168 5 -27 14 -59 19 -70 5 -11 12 -36 15 -55 6 -33 27 -100 45 -145 18
-43 19 -66 3 -72 -15 -6 -37 14 -46 41 -3 8 -9 7 -20 -2 -9 -8 -21 -11 -27 -7
-17 11 -11 33 16 54 24 19 25 20 5 30 -17 9 -22 7 -32 -11 -12 -21 -12 -21
-27 8 -9 16 -15 45 -14 64 2 35 2 35 -14 13 -10 -14 -27 -23 -43 -23 -15 0
-32 -5 -38 -11 -7 -7 -23 -9 -37 -5 -21 5 -26 13 -27 39 -1 17 -2 58 -3 90 -1
31 1 57 6 57 4 0 8 -7 8 -15 0 -21 37 -19 42 3 2 9 1 33 -2 52 -5 31 -8 35
-33 32 -26 -3 -37 11 -18 22 5 3 12 21 15 40 6 30 53 86 73 86 3 0 3 -17 -1
-39z m2584 -160 c0 -17 -12 -41 -21 -41 -10 0 -12 33 -2 43 9 10 23 9 23 -2z
m3387 -53 c-3 -7 -5 -2 -5 12 0 14 2 19 5 13 2 -7 2 -19 0 -25z m-6500 -648
c6 -28 7 -52 4 -54 -4 -3 -17 3 -30 13 -19 15 -22 23 -16 54 10 53 31 46 42
-13z m68 -502 c14 -18 37 -45 51 -59 26 -28 24 -54 -5 -62 -43 -11 -131 63
-131 110 0 36 6 43 36 43 13 0 33 -13 49 -32z m6635 -237 c0 -6 -4 -13 -10
-16 -5 -3 -10 1 -10 9 0 9 5 16 10 16 6 0 10 -4 10 -9z m-6663 -143 c-3 -8 -6
-5 -6 6 -1 11 2 17 5 13 3 -3 4 -12 1 -19z m6603 -104 c0 -16 -16 -19 -25 -4
-8 13 4 32 16 25 5 -4 9 -13 9 -21z m-70 -162 c0 -10 6 -26 14 -37 17 -24 25
-124 11 -125 -5 0 -12 12 -13 27 -2 15 -17 47 -33 71 -33 48 -34 53 -17 70 18
18 38 15 38 -6z m-5883 -28 c-3 -3 -12 -4 -19 -1 -8 3 -5 6 6 6 11 1 17 -2 13
-5z m217 -216 c24 -31 26 -48 5 -48 -5 0 -9 9 -9 20 0 11 -7 20 -15 20 -8 0
-15 6 -15 14 0 8 -8 17 -17 19 -14 4 -13 5 4 6 13 1 31 -11 47 -31z m-154 -35
c13 -26 28 -51 33 -54 14 -10 -11 -49 -31 -49 -27 0 -40 13 -57 53 -20 48 -19
84 2 96 23 12 25 11 53 -46z m231 -69 c17 -15 20 -15 44 0 23 15 26 15 31 1 8
-19 -24 -45 -44 -38 -7 3 -19 -3 -26 -12 -15 -21 -46 -14 -46 10 0 9 -9 15
-22 16 -22 0 -22 1 -3 9 11 5 16 9 12 9 -5 1 -5 6 -2 11 9 15 36 12 56 -6z
m5691 -46 c-3 -41 0 -57 11 -61 10 -4 13 -14 10 -31 -4 -21 -8 -24 -19 -15
-26 21 -44 -8 -45 -70 0 -48 -2 -52 -10 -31 -6 14 -8 36 -5 51 3 18 -1 29 -15
37 -12 8 -19 23 -19 42 0 17 -4 30 -10 30 -23 0 -8 18 19 23 21 5 34 16 47 46
26 55 40 46 36 -21z m-5810 -35 c-3 -37 1 -46 36 -81 22 -22 54 -43 72 -47 19
-4 35 -16 42 -31 16 -35 32 -24 36 22 3 35 0 42 -23 52 -28 13 -33 46 -10 76
13 17 14 17 36 -2 13 -13 20 -28 16 -41 -3 -13 1 -21 15 -24 15 -4 23 2 33 28
13 29 44 55 45 37 9 -138 18 -191 41 -249 10 -25 11 -40 2 -62 -8 -22 -8 -32
1 -41 6 -6 16 -32 22 -58 8 -37 7 -55 -4 -84 -11 -29 -12 -45 -3 -69 6 -17 8
-36 4 -43 -13 -22 -97 -116 -103 -116 -14 0 -30 73 -19 86 15 18 1 37 -22 31
-13 -4 -23 5 -37 32 -42 81 -30 165 28 194 24 12 41 57 22 57 -5 0 -23 -15
-41 -32 -58 -60 -78 -78 -83 -78 -14 0 -16 48 -3 74 26 50 14 79 -14 35 -13
-21 -14 -21 -31 20 -11 22 -24 41 -29 41 -19 0 -40 54 -29 74 7 13 7 26 -1 43
-11 25 -12 25 -32 8 -19 -18 -20 -18 -34 1 -8 10 -14 28 -14 39 1 17 2 17 6 3
5 -20 32 -24 34 -5 3 42 -5 95 -17 114 -22 35 -17 44 24 41 37 -3 37 -3 34
-45z m-106 -221 c-11 -10 -14 3 -8 33 l7 30 3 -28 c2 -16 1 -31 -2 -35z m3638
-148 c22 -8 22 -82 0 -91 -8 -3 -22 1 -31 10 -13 12 -13 21 -3 51 13 39 12 39
34 30z m-606 -29 c26 -22 31 -23 42 -10 28 34 110 5 110 -38 0 -39 -15 -48
-106 -67 -49 -11 -109 -29 -134 -41 l-46 -20 -94 35 c-52 20 -104 36 -116 36
-11 0 -28 6 -37 13 -16 11 -14 16 23 52 44 43 56 45 200 30 45 -5 61 -2 85 15
38 25 37 25 73 -5z m2683 -148 c-8 -8 -11 -3 -11 19 1 25 2 27 11 11 8 -14 8
-22 0 -30z m-4771 -181 c0 -8 -11 -36 -24 -61 -24 -49 -42 -47 -30 2 13 52 54
97 54 59z m3497 -21 c38 -27 82 -104 99 -173 9 -37 25 -86 37 -108 11 -23 20
-59 19 -80 0 -22 -1 -54 -1 -72 0 -19 -6 -35 -15 -38 -17 -7 -75 34 -75 54 -1
6 -5 12 -10 12 -5 0 -9 -18 -9 -40 0 -22 3 -40 9 -40 5 0 9 -18 9 -40 0 -22
-4 -40 -10 -40 -5 0 -10 3 -10 8 0 4 -14 15 -30 24 -27 16 -31 16 -37 2 -4
-10 -13 -14 -28 -10 -37 9 -48 -51 -20 -117 13 -31 13 -36 0 -47 -8 -7 -15
-23 -15 -35 0 -12 -3 -36 -6 -54 l-6 -31 -29 21 c-69 49 -150 -21 -106 -91 9
-16 9 -22 0 -28 -6 -4 -11 -22 -11 -40 1 -18 -1 -35 -4 -38 -3 -3 -26 15 -51
40 -45 46 -83 59 -93 32 -6 -16 17 -70 45 -106 31 -40 35 -67 11 -73 -15 -4
-24 1 -32 18 -12 26 -104 81 -130 77 -12 -2 -20 6 -24 25 -4 15 -17 46 -29 69
-12 23 -25 64 -28 93 -6 49 -5 52 20 62 24 9 24 11 10 32 -8 12 -23 23 -33 23
-11 1 -24 2 -30 3 -7 1 -34 23 -61 50 -40 40 -59 51 -105 60 -30 7 -64 18 -74
26 -11 8 -27 15 -38 15 -10 0 -36 10 -57 22 -49 27 -54 64 -11 75 15 3 50 17
77 30 l50 23 -153 -6 c-110 -5 -156 -3 -166 6 -11 9 -20 9 -36 0 -18 -10 -22
-9 -27 9 -5 19 -45 32 -42 14 3 -20 -2 -24 -16 -13 -13 10 -19 10 -33 -4 -10
-9 -35 -16 -55 -16 -30 0 -37 4 -37 20 0 24 -18 26 -34 5 -18 -24 -125 -31
-164 -11 -18 9 -58 17 -90 18 -31 0 -61 4 -67 9 -14 10 -66 13 -96 5 -17 -5
-48 -1 -83 10 -55 17 -58 17 -89 -1 -76 -43 -75 -46 5 -73 40 -14 88 -27 106
-31 38 -7 39 -27 1 -23 -16 2 -37 -6 -55 -21 -30 -25 -75 -50 -118 -67 -19 -7
-29 -4 -47 11 -27 23 -27 23 -64 -1 -16 -11 -46 -20 -65 -20 -33 0 -49 -10
-95 -62 -6 -6 -9 -26 -7 -43 3 -25 -2 -36 -22 -52 -14 -12 -26 -28 -26 -36 0
-8 -11 -22 -25 -31 -24 -16 -25 -15 -25 3 0 11 -4 23 -10 26 -14 8 -57 -26
-64 -50 -9 -33 -20 -7 -18 43 3 55 27 112 47 112 19 0 19 24 2 39 -17 13 -46
-11 -82 -70 -14 -21 -30 -39 -35 -39 -6 0 -10 -11 -10 -23 0 -13 -9 -32 -20
-42 -19 -17 -22 -17 -36 -3 -21 21 -20 84 2 109 13 15 14 19 3 19 -8 0 -22 -9
-32 -20 -18 -21 -71 -28 -82 -10 -6 10 9 67 26 101 11 24 -26 32 -62 13 -38
-19 -39 -19 -39 19 0 49 -13 63 -45 49 -37 -17 -38 -16 -31 28 5 35 3 43 -20
62 -14 13 -33 37 -41 53 -8 17 -24 40 -35 51 -15 17 -18 33 -16 70 2 36 -2 54
-14 67 -18 17 -23 54 -12 92 7 24 69 55 111 55 17 0 59 -7 94 -16 47 -12 68
-13 86 -5 13 6 35 11 48 11 36 0 144 -48 180 -81 11 -10 38 -22 60 -27 22 -5
45 -11 50 -13 24 -7 101 15 114 34 13 18 14 18 24 2 7 -14 6 -21 -7 -31 -16
-11 -16 -13 4 -19 23 -7 50 9 50 31 0 10 7 13 24 8 21 -5 26 -1 35 29 14 41
39 59 98 74 32 8 43 8 47 -2 3 -9 28 -13 76 -14 39 0 80 -6 91 -12 15 -7 34
-8 67 0 48 11 155 9 274 -4 50 -6 79 -4 115 8 30 10 100 18 183 21 75 2 163
10 197 17 45 9 68 10 85 2 18 -8 28 -7 43 3 29 21 88 17 120 -7 24 -20 32 -21
73 -11 37 8 50 8 60 -2 11 -11 9 -19 -13 -44 l-27 -32 26 -11 c20 -9 32 -9 51
-1 27 12 31 32 15 62 -8 15 -4 23 22 44 36 28 61 22 79 -17 6 -12 23 -30 40
-39 16 -9 29 -24 29 -33 0 -13 8 -15 41 -11 52 6 67 19 71 64 3 32 7 37 31 40
21 3 27 -1 27 -16 0 -33 22 -31 70 5 25 18 59 40 75 48 39 19 115 19 142 0z
m-3480 -277 c-3 -7 -5 -2 -5 12 0 14 2 19 5 13 2 -7 2 -19 0 -25z m1233 -442
c0 -3 -4 -8 -10 -11 -5 -3 -10 -1 -10 4 0 6 5 11 10 11 6 0 10 -2 10 -4z
m1647 -38 c-3 -8 -6 -5 -6 6 -1 11 2 17 5 13 3 -3 4 -12 1 -19z m-1649 -99
c-25 -14 -22 -38 5 -49 12 -5 16 -9 10 -9 -7 -1 -13 -8 -13 -17 0 -8 -13 -29
-29 -45 -19 -19 -27 -35 -24 -49 3 -13 -5 -29 -25 -50 -17 -16 -33 -30 -36
-30 -3 0 -14 10 -25 22 -19 20 -22 20 -39 5 -10 -9 -21 -17 -24 -17 -12 0 -16
95 -5 109 7 8 16 28 22 45 10 30 23 39 116 82 13 6 38 12 54 12 25 1 27 0 13
-9z m-288 -14 c0 -8 -4 -15 -10 -15 -5 0 -7 7 -4 15 4 8 8 15 10 15 2 0 4 -7
4 -15z m77 -72 c2 -6 -3 -13 -12 -16 -10 -5 -15 0 -15 14 0 21 21 22 27 2z
m1847 -43 c20 0 46 -51 46 -90 0 -22 -5 -30 -18 -30 -30 0 -44 -21 -28 -39 20
-22 30 -67 17 -76 -6 -3 -16 4 -21 17 -6 13 -17 34 -25 48 -8 13 -11 29 -7 35
6 9 7 41 3 108 0 9 -7 17 -15 17 -17 0 -30 35 -20 52 5 8 14 3 30 -15 13 -15
30 -27 38 -27z m-1458 -11 c-3 -29 -10 -57 -15 -62 -6 -6 -11 -19 -11 -28 0
-30 -34 -62 -58 -55 -23 8 -31 49 -11 61 17 11 4 30 -21 30 -13 0 -25 5 -27
11 -5 16 94 80 145 93 2 1 1 -22 -2 -50z m834 -56 c0 -10 7 -14 19 -10 26 6
61 -43 64 -90 2 -33 -1 -38 -18 -35 -11 2 -30 13 -42 24 -20 19 -23 19 -29 4
-3 -9 -2 -35 4 -58 9 -34 8 -46 -3 -58 -8 -9 -14 -37 -13 -69 0 -41 -5 -58
-21 -74 l-21 -21 0 36 c0 50 -15 84 -39 91 -27 7 -32 0 -19 -29 9 -19 8 -28
-7 -44 -23 -25 -35 -11 -35 42 0 43 8 68 22 68 6 0 22 12 35 26 17 19 21 30
14 37 -19 19 -13 92 9 120 11 14 20 30 20 36 0 14 31 30 47 24 7 -3 13 -12 13
-20z m-214 -85 c13 -11 24 -28 24 -38 0 -9 7 -23 15 -30 8 -7 15 -23 15 -37 0
-33 -32 -27 -40 7 -6 27 -14 20 -24 -22 -7 -32 -13 -33 -40 -13 -18 13 -19 19
-8 48 19 54 26 133 12 142 -9 6 -9 9 1 16 11 6 15 1 17 -23 2 -18 13 -39 28
-50z m-796 38 c0 -5 -10 -17 -22 -28 -23 -20 -23 -20 -29 4 -3 13 -4 30 -1 39
3 14 8 14 28 5 13 -6 24 -15 24 -20z m597 16 c10 -6 17 -49 14 -95 -1 -11 -15
-24 -35 -32 -19 -8 -37 -19 -41 -25 -9 -15 -45 -12 -45 4 0 21 57 138 72 147
16 11 20 11 35 1z m-330 -74 c-3 -7 -5 -2 -5 12 0 14 2 19 5 13 2 -7 2 -19 0
-25z m989 -209 c-20 -17 -21 -17 -24 8 -2 13 -1 32 3 41 5 15 9 14 25 -7 17
-24 17 -25 -4 -42z m-553 -10 c13 -9 -11 -22 -28 -15 -15 6 -20 37 -8 50 4 3
11 -1 17 -11 5 -10 14 -21 19 -24z m-145 -50 c-5 -53 -33 -102 -61 -107 -29
-6 -20 92 10 129 39 46 57 39 51 -22z m182 -23 c0 -21 -26 -44 -37 -32 -5 4
26 56 33 56 2 0 4 -11 4 -24z m181 -97 c26 -30 12 -45 -17 -18 -13 12 -21 26
-18 30 8 13 15 11 35 -12z m197 -47 c2 -15 -2 -22 -12 -22 -9 0 -16 4 -16 9 0
5 -3 17 -6 26 -5 13 -2 16 12 13 11 -2 20 -13 22 -26z m2637 -192 c3 -5 -1
-10 -9 -10 -9 0 -16 5 -16 10 0 6 4 10 9 10 6 0 13 -4 16 -10z m-41 -41 c-3
-5 -10 -7 -15 -3 -5 3 -7 10 -3 15 3 5 10 7 15 3 5 -3 7 -10 3 -15z m696 -303
c0 -11 -19 -15 -25 -6 -3 5 1 10 9 10 9 0 16 -2 16 -4z m99 -35 c25 9 32 6 65
-27 20 -20 36 -38 36 -40 0 -9 -37 -3 -48 8 -8 8 -15 8 -25 0 -10 -9 -22 -7
-49 6 -37 17 -51 42 -41 68 4 12 8 11 19 -5 12 -17 19 -18 43 -10z m231 -67
c0 -8 -5 -12 -10 -9 -6 4 -8 11 -5 16 9 14 15 11 15 -7z m-26 -109 c3 -8 3
-28 0 -44 -5 -24 -2 -30 26 -41 l31 -13 -22 -23 c-49 -52 -87 -19 -84 71 1 33
3 61 4 63 5 9 40 -1 45 -13z m-146 -88 c-2 -15 5 -22 25 -28 30 -8 56 -35 57
-57 0 -20 50 -82 66 -82 7 0 21 -14 30 -31 12 -25 14 -37 5 -56 -9 -19 -15
-22 -29 -14 -12 7 -22 5 -35 -6 -16 -15 -19 -15 -40 4 -12 11 -32 24 -45 28
-21 6 -21 8 -7 28 20 29 19 37 -7 38 l-23 2 23 4 c13 3 22 12 22 23 0 10 5 22
10 25 16 10 1 25 -25 25 -14 0 -29 8 -35 19 -5 11 -19 23 -30 26 -25 8 -27 56
-4 80 20 20 46 2 42 -28z m302 22 c0 -6 -4 -7 -10 -4 -5 3 -10 11 -10 16 0 6
5 7 10 4 6 -3 10 -11 10 -16z m68 -108 c3 -16 -1 -22 -10 -19 -7 3 -15 15 -16
27 -3 16 1 22 10 19 7 -3 15 -15 16 -27z m-65 -102 c3 -10 1 -19 -3 -19 -14 0
-60 61 -54 72 8 12 50 -27 57 -53z m168 -59 c19 -11 27 -40 10 -40 -23 0 -41
14 -41 31 0 22 4 23 31 9z m-93 -31 c29 -27 20 -39 -26 -34 -37 3 -43 15 -20
42 14 17 21 16 46 -8z m-88 -39 c0 -11 6 -20 14 -20 7 0 19 -7 26 -15 7 -8 23
-15 36 -15 17 0 29 -10 44 -40 19 -38 20 -41 3 -46 -10 -3 -26 -10 -35 -15
-10 -5 -28 -9 -41 -9 -13 0 -29 -6 -36 -12 -11 -10 -14 -10 -18 0 -3 6 -10 12
-16 12 -7 0 -18 10 -26 22 -13 21 -14 21 -28 3 -9 -14 -12 -33 -7 -62 5 -38 4
-43 -12 -43 -11 0 -25 9 -32 20 -7 12 -24 25 -37 30 -18 7 -25 17 -25 35 0 14
-7 28 -15 31 -24 10 -17 33 16 53 17 10 37 29 46 41 19 27 68 49 111 50 25 0
32 -4 32 -20z m260 -62 c0 -22 -8 -23 -32 -1 -10 9 -18 27 -18 41 l0 24 25
-23 c13 -13 25 -32 25 -41z m-7937 -118 c-3 -10 -11 -25 -19 -31 -8 -6 -14
-18 -14 -25 0 -8 -9 -23 -20 -34 -25 -25 -25 -15 -2 30 38 74 67 105 55 60z
m7997 3 c0 -9 7 -24 16 -34 19 -22 12 -49 -13 -49 -15 0 -18 9 -18 50 0 28 3
50 7 50 5 0 8 -8 8 -17z m-363 -102 c2 -10 16 -24 29 -30 16 -7 24 -19 24 -36
0 -15 5 -35 10 -45 15 -28 -5 -61 -56 -94 -24 -15 -44 -33 -44 -40 0 -18 44
-36 85 -36 31 0 55 -20 55 -44 0 -12 -48 -6 -53 7 -5 12 -8 6 -22 -39 -7 -22
-29 -12 -33 14 -2 12 -13 28 -25 37 -16 11 -22 28 -25 77 -3 45 -9 67 -22 78
-11 9 -20 31 -22 55 -3 40 -3 40 35 43 35 3 37 5 37 38 0 36 19 47 27 15z
m437 -21 c13 -27 13 -32 0 -45 -27 -27 -40 -17 -42 30 -2 54 18 61 42 15z
m-119 -30 c14 -27 14 -30 -4 -40 -16 -8 -23 -5 -41 19 -19 28 -19 30 -3 40 27
15 31 14 48 -19z m-8064 -23 c-14 -15 -21 -17 -21 -8 0 21 33 56 38 41 3 -7
-5 -22 -17 -33z m7989 -33 c0 -8 -6 -14 -13 -14 -8 0 -24 -11 -37 -25 -22 -23
-25 -24 -31 -8 -8 25 1 53 17 53 8 0 14 4 14 9 0 4 11 6 25 3 14 -2 25 -11 25
-18z m244 -20 c8 -21 -11 -44 -35 -44 -23 0 -24 18 -2 42 20 22 29 23 37 2z
m-8274 -13 c0 -11 -4 -23 -10 -26 -6 -4 -10 5 -10 19 0 14 5 26 10 26 6 0 10
-9 10 -19z m400 -18 c0 -19 -3 -24 -10 -17 -6 6 -8 18 -4 27 9 24 14 21 14
-10z m7754 -19 c3 -8 3 -28 -1 -42 l-6 -27 -13 35 c-7 19 -13 38 -13 43 -2 14
27 7 33 -9z m-236 -22 c2 -7 -6 -12 -17 -12 -21 0 -27 11 -14 24 9 9 26 2 31
-12z m425 -54 c8 -27 -10 -31 -33 -8 -12 12 -20 33 -20 53 l0 32 24 -30 c14
-16 27 -38 29 -47z m-248 -48 c22 -21 46 -39 53 -40 17 0 15 -19 -4 -27 -10
-4 -14 -13 -10 -26 3 -11 -4 -38 -15 -59 -20 -39 -20 -41 -2 -60 14 -15 26
-19 55 -15 46 6 59 -10 29 -35 -20 -15 -21 -19 -7 -24 9 -3 16 -12 16 -19 0
-15 72 -55 100 -55 11 0 26 -12 35 -29 8 -16 20 -31 26 -33 6 -2 14 -19 18
-38 10 -46 -12 -82 -44 -74 -13 3 -26 1 -29 -5 -4 -6 -15 -11 -26 -11 -10 0
-20 -7 -24 -15 -3 -9 -18 -15 -36 -15 -34 0 -34 0 -18 -35 15 -33 -2 -56 -27
-35 -8 7 -15 9 -15 4 1 -15 24 -40 49 -53 19 -10 21 -15 10 -22 -8 -5 -26 -9
-41 -9 -24 0 -28 4 -28 30 0 23 -5 30 -19 30 -20 0 -51 -25 -51 -41 0 -5 6 -9
14 -9 23 0 35 -23 25 -48 -7 -18 -15 -23 -36 -20 -24 3 -28 7 -25 30 3 33 -11
43 -31 23 -9 -8 -27 -15 -42 -15 l-26 0 20 26 c25 32 27 57 6 78 -22 21 -18
38 7 34 18 -2 24 -12 31 -45 4 -24 12 -43 16 -43 4 0 20 29 36 65 22 48 32 61
38 50 13 -23 37 -18 37 8 0 36 -15 53 -34 38 -8 -7 -20 -10 -26 -6 -18 11 -58
80 -62 106 -2 16 -10 25 -27 27 -35 5 -45 -10 -31 -52 6 -20 8 -41 3 -48 -4
-7 -6 -21 -5 -31 5 -25 -46 -43 -67 -23 -12 12 -12 20 -3 41 6 14 18 25 27 25
19 0 19 36 0 74 -27 52 -16 76 37 76 16 0 19 5 15 25 -5 30 25 54 47 36 6 -6
32 -13 56 -17 l44 -7 -22 28 c-12 15 -22 34 -22 41 0 15 -2 19 -37 91 l-21 42
25 23 c14 13 28 22 31 20 4 -2 8 2 10 8 3 7 -5 10 -19 8 -13 -2 -23 -9 -21
-16 3 -16 -50 -16 -66 0 -16 16 -17 -24 0 -55 28 -54 29 -59 18 -72 -6 -7 -8
-24 -6 -37 5 -19 -1 -26 -38 -45 l-44 -21 -12 29 c-7 16 -10 35 -7 43 4 9 -8
29 -30 51 -38 38 -49 42 -56 23 -3 -10 -8 -10 -16 -2 -18 16 13 44 48 44 33 0
51 16 51 46 0 31 13 37 54 26 34 -10 34 -10 26 19 -5 18 -5 31 2 35 8 5 54 21
68 23 3 1 23 -17 45 -39z m-8195 -5 c0 -14 -4 -25 -9 -25 -4 0 -6 11 -3 25 2
14 6 25 8 25 2 0 4 -11 4 -25z m8293 8 c-7 -2 -13 -14 -14 -26 0 -21 -1 -21
-9 -2 -13 31 -12 35 13 34 12 0 16 -3 10 -6z m177 -24 c0 -17 -4 -28 -10 -24
-5 3 -10 17 -10 31 0 13 5 24 10 24 6 0 10 -14 10 -31z m-152 -40 c-2 -6 -8
-10 -13 -10 -5 0 -11 4 -13 10 -2 6 4 11 13 11 9 0 15 -5 13 -11z m-8381 -61
c-3 -8 -6 -5 -6 6 -1 11 2 17 5 13 3 -3 4 -12 1 -19z m8577 -4 c23 -9 20 -34
-4 -34 -13 0 -20 7 -20 20 0 22 1 23 24 14z m-8594 -22 c0 -5 -7 -17 -16 -28
-14 -17 -15 -17 -10 -1 3 10 6 23 6 28 0 5 5 9 10 9 6 0 10 -4 10 -8z m8637
-74 c-3 -8 -6 -5 -6 6 -1 11 2 17 5 13 3 -3 4 -12 1 -19z m-587 -38 c0 -11 -4
-20 -9 -20 -5 0 -7 9 -4 20 3 11 7 20 9 20 2 0 4 -9 4 -20z m-8120 -9 c0 -6
-4 -13 -10 -16 -5 -3 -10 1 -10 9 0 9 5 16 10 16 6 0 10 -4 10 -9z m-30 -55
c0 -14 -6 -31 -13 -38 -7 -7 -18 -24 -24 -38 l-12 -25 0 24 c-1 27 30 100 42
101 4 0 7 -11 7 -24z m8800 -6 c0 -5 -5 -10 -11 -10 -5 0 -7 5 -4 10 3 6 8 10
11 10 2 0 4 -4 4 -10z m-4935 -40 c4 -6 -5 -10 -20 -10 -15 0 -24 4 -20 10 3
6 12 10 20 10 8 0 17 -4 20 -10z m-3931 -93 c-9 -24 -23 -11 -17 14 3 12 9 17
15 11 5 -5 6 -16 2 -25z m8906 17 c0 -8 -4 -12 -10 -9 -5 3 -10 10 -10 16 0 5
5 9 10 9 6 0 10 -7 10 -16z m-8951 -98 c-12 -25 -26 -46 -31 -46 -15 0 -8 31
12 57 11 14 20 33 20 41 0 12 3 13 11 5 8 -8 5 -23 -12 -57z m116 -26 c0 -27
-22 -39 -31 -16 -8 22 3 49 19 43 6 -2 12 -14 12 -27z m8893 12 c2 -7 -2 -10
-12 -6 -9 3 -16 11 -16 16 0 13 23 5 28 -10z m-312 -56 c12 -16 32 -71 28 -77
-6 -10 -57 -12 -67 -3 -3 4 -2 16 4 26 8 14 8 23 0 31 -20 20 -13 39 12 31 12
-3 22 -7 23 -8z m-8766 -75 c-11 -23 -25 -41 -30 -41 -6 0 -10 -9 -10 -20 0
-25 -37 -100 -49 -100 -5 0 -12 -13 -16 -29 -3 -16 -19 -43 -36 -62 -16 -18
-29 -37 -29 -41 0 -5 -5 -6 -10 -3 -10 6 -4 45 9 55 9 8 51 69 51 75 0 3 12
24 27 48 43 66 63 106 63 122 0 9 10 30 23 46 20 28 22 29 25 11 2 -11 -6 -39
-18 -61z m8896 8 c22 -17 53 -37 70 -44 34 -14 49 -48 29 -65 -8 -7 -28 -8
-48 -5 -21 4 -37 3 -41 -4 -13 -20 3 -30 35 -21 16 5 36 7 43 4 17 -7 56 -77
56 -102 0 -15 5 -19 20 -15 16 4 20 0 20 -21 0 -27 -13 -32 -57 -20 -16 4 -24
16 -29 39 -4 25 -13 36 -35 44 -16 5 -29 16 -29 24 0 8 -11 19 -24 25 -28 13
-44 65 -26 87 9 11 7 21 -9 44 -18 25 -28 61 -17 61 2 0 21 -14 42 -31z m98
15 c13 -5 14 -9 5 -20 -16 -20 -29 -17 -29 6 0 22 1 23 24 14z m-8866 -100
c-6 -13 -15 -24 -19 -24 -10 0 -20 46 -13 65 6 15 8 15 25 -1 14 -13 16 -20 7
-40z m8266 -15 c-3 -5 -10 -7 -15 -3 -5 3 -7 10 -3 15 3 5 10 7 15 3 5 -3 7
-10 3 -15z m286 6 c0 -8 3 -15 8 -15 10 0 42 -58 42 -76 0 -15 -19 -18 -35 -6
-5 4 -11 20 -12 36 -3 39 -11 44 -29 18 -8 -12 -20 -20 -25 -17 -13 9 -11 49
3 63 17 17 48 15 48 -3z m430 -5 c0 -5 -2 -10 -4 -10 -3 0 -8 5 -11 10 -3 6
-1 10 4 10 6 0 11 -4 11 -10z m-280 -25 c0 -8 -4 -15 -10 -15 -5 0 -10 7 -10
15 0 8 5 15 10 15 6 0 10 -7 10 -15z m-8738 -17 c11 2 18 -3 18 -14 0 -13 -6
-15 -30 -10 -26 5 -32 2 -40 -20 -12 -31 -13 -74 -2 -74 5 0 14 -12 21 -27 10
-22 10 -29 -1 -38 -8 -5 -17 -17 -20 -26 -9 -22 15 -90 36 -101 9 -5 16 -16
16 -23 0 -8 5 -15 10 -15 6 0 10 -4 10 -9 0 -4 -11 -6 -24 -4 -16 3 -31 18
-41 39 -12 25 -22 34 -40 34 -13 0 -27 5 -30 10 -3 6 -19 10 -36 10 -26 0 -29
3 -29 31 0 17 8 38 19 47 10 10 33 53 52 97 42 99 57 119 77 102 8 -7 23 -11
34 -9z m8381 15 c-7 -2 -19 -2 -25 0 -7 3 -2 5 12 5 14 0 19 -2 13 -5z m118
-66 c-10 -46 -37 -43 -33 3 5 45 11 54 27 40 8 -7 10 -21 6 -43z m278 -7 c15
0 99 -84 102 -102 5 -39 -4 -63 -35 -92 -27 -25 -35 -41 -41 -84 -7 -53 -7
-53 -23 -30 -9 13 -16 26 -15 30 3 9 -27 -1 -44 -15 -7 -5 -13 -21 -13 -35 l0
-25 -24 26 c-14 15 -26 34 -28 44 -2 9 -14 20 -27 23 -29 7 -46 31 -38 54 6
15 10 15 42 2 42 -18 49 -10 60 66 6 41 4 48 -14 57 -30 16 -28 45 3 39 13 -3
31 1 41 8 15 11 16 16 6 28 -19 23 -3 41 18 22 10 -9 23 -16 30 -16z m-219
-20 c0 -5 -4 -10 -10 -10 -5 0 -10 5 -10 10 0 6 5 10 10 10 6 0 10 -4 10 -10z
m-8430 -24 c0 -3 -4 -8 -10 -11 -5 -3 -10 -1 -10 4 0 6 5 11 10 11 6 0 10 -2
10 -4z m9037 -28 c-3 -8 -6 -5 -6 6 -1 11 2 17 5 13 3 -3 4 -12 1 -19z m-607
-7 c0 -6 -4 -13 -10 -16 -5 -3 -10 1 -10 9 0 9 5 16 10 16 6 0 10 -4 10 -9z
m-8500 -41 c0 -10 5 -22 10 -25 6 -3 10 -13 10 -21 0 -8 -5 -12 -10 -9 -6 4
-8 11 -5 16 4 5 -1 12 -9 15 -9 3 -16 17 -16 31 0 13 4 21 10 18 6 -3 10 -15
10 -25z m-350 -17 c-16 -54 -30 -83 -40 -83 -17 0 -11 29 10 47 11 10 20 28
20 40 0 13 4 23 9 23 6 0 6 -11 1 -27z m9520 -58 c0 -8 -9 -15 -20 -15 -20 0
-26 11 -13 23 12 13 33 7 33 -8z m-9593 -123 c-8 -10 -18 -31 -21 -48 -4 -17
-18 -42 -32 -54 -13 -13 -24 -31 -24 -41 0 -9 -7 -22 -15 -29 -8 -7 -15 -22
-15 -35 0 -12 -11 -35 -25 -51 l-25 -29 0 27 c0 15 4 29 9 33 5 3 12 19 16 35
4 17 10 30 15 30 4 0 11 12 15 27 3 15 10 30 13 33 8 6 29 43 69 120 26 52 28
53 31 27 2 -16 -3 -36 -11 -45z m9491 13 c9 -7 -15 -38 -45 -56 -35 -22 -36
-22 -49 -4 -17 22 -17 30 -4 55 8 15 18 17 52 13 24 -3 44 -7 46 -8z m-9383
-65 c-3 -5 -12 -7 -20 -4 -12 5 -12 10 -4 27 10 18 12 19 21 4 5 -10 6 -21 3
-27z m9061 -5 c50 -2 54 -10 34 -61 -15 -42 -16 -50 -2 -76 11 -23 12 -36 4
-53 -28 -61 -94 -25 -85 45 4 25 0 41 -11 52 -14 14 -13 16 4 21 26 7 25 23 0
37 -11 6 -20 20 -20 31 0 17 4 19 23 13 12 -4 36 -8 53 -9z m-229 -27 c-3 -8
-6 -5 -6 6 -1 11 2 17 5 13 3 -3 4 -12 1 -19z m51 -25 c-10 -2 -26 -2 -35 0
-10 3 -2 5 17 5 19 0 27 -2 18 -5z m762 -29 c0 -2 -9 -4 -20 -4 -11 0 -20 4
-20 9 0 5 9 7 20 4 11 -3 20 -7 20 -9z m-9368 -46 c-9 -9 -12 -4 -11 23 0 32
1 33 11 11 8 -17 8 -26 0 -34z m9239 40 c34 -11 40 -16 36 -36 -3 -16 2 -28
18 -38 13 -8 29 -28 35 -45 7 -16 26 -37 42 -47 19 -11 28 -23 24 -35 -3 -11
5 -23 20 -33 23 -16 35 -64 15 -64 -18 0 -66 21 -72 32 -4 6 -14 8 -22 5 -19
-7 -20 -87 -1 -87 18 0 54 -49 54 -74 1 -18 5 -16 35 16 19 21 35 47 35 58 0
17 3 18 18 9 25 -16 52 -66 46 -84 -4 -9 3 -18 17 -24 13 -5 32 -18 42 -29 18
-20 18 -21 -4 -32 -19 -11 -25 -9 -38 7 -13 15 -26 19 -68 16 -29 -1 -63 -3
-75 -4 -50 -2 -69 -11 -78 -34 -5 -14 -14 -25 -20 -25 -18 0 -11 39 10 57 11
10 20 22 20 27 0 5 8 15 17 22 16 11 15 13 -11 20 -16 4 -37 14 -47 23 -10 9
-25 22 -34 30 -10 8 -15 23 -13 36 4 21 2 22 -32 18 -22 -3 -40 -1 -44 6 -7
11 3 14 42 11 12 -1 22 1 22 5 0 16 -22 45 -34 45 -9 0 -12 7 -9 20 4 14 -2
23 -21 31 -35 16 -36 62 -1 85 14 9 25 25 25 36 0 11 4 28 10 38 8 15 5 19
-15 24 -14 4 -25 11 -25 16 0 14 32 13 81 -2z m-131 -41 c33 -7 39 -27 14 -51
-34 -35 -65 -13 -71 50 -5 46 -4 48 11 28 8 -12 29 -24 46 -27z m300 -17 c0
-5 -4 -10 -10 -10 -5 0 -10 5 -10 10 0 6 5 10 10 10 6 0 10 -4 10 -10z m-9407
-41 c-17 -17 -37 -1 -22 17 8 10 15 12 23 4 7 -7 7 -13 -1 -21z m-373 11 c0
-5 -7 -10 -15 -10 -8 0 -15 5 -15 10 0 6 7 10 15 10 8 0 15 -4 15 -10z m9420
-4 c0 -7 -6 -19 -13 -25 -11 -8 -18 -7 -31 7 -9 10 -13 22 -9 25 12 13 53 7
53 -7z m423 -50 c7 -18 -1 -26 -18 -19 -8 2 -11 11 -8 19 7 18 19 18 26 0z
m-9873 -16 c0 -5 -7 -16 -16 -25 -24 -24 -40 -3 -18 23 17 20 34 21 34 2z m91
7 c-1 -12 -15 -9 -19 4 -3 6 1 10 8 8 6 -3 11 -8 11 -12z m9044 3 c3 -5 -1
-10 -9 -10 -9 0 -16 5 -16 10 0 6 4 10 9 10 6 0 13 -4 16 -10z m-9285 -12 c0
-25 -12 -58 -21 -58 -10 0 -12 31 -3 54 7 19 24 21 24 4z m498 -5 c7 -12 3
-22 -19 -40 -16 -14 -33 -22 -39 -18 -17 11 -11 43 12 59 28 20 35 20 46 -1z
m9060 -46 c3 -30 8 -38 28 -43 28 -7 28 -8 12 -34 -11 -18 -9 -23 17 -45 17
-13 40 -24 52 -25 36 0 34 -15 -3 -29 -42 -15 -94 -6 -94 17 0 8 -10 26 -22
39 -11 12 -22 37 -23 55 -1 18 -7 46 -14 62 -9 23 -9 31 1 38 26 16 43 4 46
-35z m492 27 c0 -8 -5 -12 -10 -9 -6 4 -8 11 -5 16 9 14 15 11 15 -7z m-387
-31 c-7 -2 -19 -2 -25 0 -7 3 -2 5 12 5 14 0 19 -2 13 -5z m417 -19 c0 -14 -4
-23 -10 -19 -5 3 -10 15 -10 26 0 10 5 19 10 19 6 0 10 -12 10 -26z m-10150
-120 c-14 -37 -24 -23 -15 23 5 30 9 34 16 21 6 -10 5 -27 -1 -44z m10229 16
c11 -22 16 -40 11 -40 -6 0 -10 4 -10 9 0 5 -9 11 -20 14 -19 5 -27 36 -13 50
9 10 9 10 32 -33z m-734 -29 c3 -5 1 -12 -5 -16 -5 -3 -10 1 -10 9 0 18 6 21
15 7z m-9386 -25 c18 -22 2 -46 -30 -46 -22 0 -29 5 -29 20 0 10 8 24 18 29
23 14 28 13 41 -3z m9693 -29 c-12 -13 -22 -29 -22 -35 0 -7 -5 -12 -11 -12
-7 0 -8 7 -4 18 4 9 10 25 12 35 3 9 15 17 26 17 20 0 20 0 -1 -23z m-9302 -2
c0 -8 -7 -15 -16 -15 -14 0 -14 3 -4 15 7 8 14 15 16 15 2 0 4 -7 4 -15z
m8930 -11 c0 -8 -5 -12 -10 -9 -6 4 -8 11 -5 16 9 14 15 11 15 -7z m885 -21
c33 -37 33 -69 0 -45 -11 8 -36 72 -29 72 3 0 16 -12 29 -27z m-10174 -53
c-10 -8 -21 -22 -24 -30 -3 -10 -7 -6 -12 12 -5 20 -1 34 16 58 l24 31 7 -28
c6 -21 3 -32 -11 -43z m425 34 c-4 -12 -10 -14 -17 -7 -5 5 -7 17 -3 27 4 12
10 14 17 7 5 -5 7 -17 3 -27z m8959 17 c3 -5 1 -12 -5 -16 -5 -3 -10 1 -10 9
0 18 6 21 15 7z m-9460 -30 c3 -5 1 -12 -5 -16 -5 -3 -10 1 -10 9 0 18 6 21
15 7z m551 -39 c-11 -10 -15 4 -8 28 l7 25 3 -23 c2 -13 1 -26 -2 -30z m-439
-4 c-3 -8 -6 -5 -6 6 -1 11 2 17 5 13 3 -3 4 -12 1 -19z m9440 -53 c28 -26 35
-37 26 -46 -20 -20 -57 -2 -72 33 -8 18 -16 36 -19 41 -11 21 32 3 65 -28z
m-9586 -6 c13 -13 27 -18 40 -14 16 5 19 2 19 -23 0 -17 -6 -32 -15 -36 -8 -3
-16 -18 -16 -33 l-1 -28 -7 30 c-5 25 -12 30 -36 31 -66 3 -64 0 -41 49 12 25
24 45 29 45 4 0 16 -9 28 -21z"/>
<path d="M10925 10820 c-8 -12 20 -24 35 -15 6 3 8 11 5 16 -8 12 -32 12 -40
-1z"/>
<path d="M10622 10740 c0 -14 2 -19 5 -12 2 6 2 18 0 25 -3 6 -5 1 -5 -13z"/>
<path d="M9647 8733 c-13 -13 -7 -53 8 -53 14 0 35 29 35 49 0 12 -33 15 -43
4z"/>
<path d="M6485 8601 c-3 -5 -1 -12 4 -15 13 -8 42 4 35 15 -7 12 -31 12 -39 0z"/>
<path d="M11022 7981 c4 -13 18 -16 19 -4 0 4 -5 9 -11 12 -7 2 -11 -2 -8 -8z"/>
<path d="M11090 7660 c0 -11 5 -20 10 -20 6 0 10 -9 10 -19 0 -28 11 -52 21
-45 5 3 9 23 9 44 0 29 -5 42 -19 50 -27 14 -31 13 -31 -10z"/>
<path d="M9905 7660 c-8 -13 45 -13 65 0 11 7 6 10 -22 10 -20 0 -40 -4 -43
-10z"/>
<path d="M11030 7630 c0 -5 5 -10 11 -10 5 0 7 5 4 10 -3 6 -8 10 -11 10 -2 0
-4 -4 -4 -10z"/>
<path d="M11060 7600 c0 -5 5 -10 11 -10 5 0 7 5 4 10 -3 6 -8 10 -11 10 -2 0
-4 -4 -4 -10z"/>
<path d="M4995 7560 c3 -5 8 -10 11 -10 2 0 4 5 4 10 0 6 -5 10 -11 10 -5 0
-7 -4 -4 -10z"/>
<path d="M11022 7518 c-16 -16 -15 -25 3 -32 18 -6 45 2 45 15 0 16 -36 29
-48 17z"/>
<path d="M11020 7223 c0 -5 5 -15 10 -23 8 -12 10 -11 10 8 0 12 -4 22 -10 22
-5 0 -10 -3 -10 -7z"/>
<path d="M10870 7030 c0 -5 5 -10 10 -10 6 0 10 5 10 10 0 6 -4 10 -10 10 -5
0 -10 -4 -10 -10z"/>
<path d="M10636 6631 c-10 -16 29 -55 48 -48 16 6 16 8 0 32 -16 25 -38 33
-48 16z"/>
<path d="M10628 6514 c-11 -10 26 -62 57 -81 75 -46 85 -35 25 27 -22 23 -40
46 -40 51 0 10 -33 13 -42 3z"/>
<path d="M6806 6385 c-3 -9 0 -15 9 -15 16 0 20 16 6 24 -5 3 -11 -1 -15 -9z"/>
<path d="M10645 6319 c-4 -6 2 -19 14 -30 12 -11 21 -24 21 -29 0 -6 5 -10 10
-10 6 0 10 9 10 20 0 11 -4 20 -9 20 -5 0 -11 9 -14 20 -6 22 -22 26 -32 9z"/>
<path d="M10032 6120 c0 -14 2 -19 5 -12 2 6 2 18 0 25 -3 6 -5 1 -5 -13z"/>
<path d="M10550 6081 c0 -22 16 -36 24 -22 8 12 -3 41 -15 41 -5 0 -9 -9 -9
-19z"/>
<path d="M5385 5970 c3 -5 13 -10 21 -10 8 0 14 5 14 10 0 6 -9 10 -21 10 -11
0 -17 -4 -14 -10z"/>
<path d="M5562 5770 c0 -14 2 -19 5 -12 2 6 2 18 0 25 -3 6 -5 1 -5 -13z"/>
<path d="M7380 5210 c0 -23 22 -27 39 -7 13 16 5 27 -21 27 -11 0 -18 -7 -18
-20z"/>
<path d="M8978 5093 c7 -3 16 -2 19 1 4 3 -2 6 -13 5 -11 0 -14 -3 -6 -6z"/>
<path d="M7193 4843 c-29 -31 -53 -62 -53 -69 0 -26 18 -22 55 11 21 19 41 35
46 35 15 0 49 43 49 62 0 37 -43 20 -97 -39z"/>
<path d="M9161 4671 c-34 -9 -38 -48 -7 -63 37 -16 60 -4 51 30 -8 35 -15 40
-44 33z"/>
<path d="M7277 4483 c-12 -11 -8 -23 8 -23 8 0 15 7 15 15 0 16 -12 20 -23 8z"/>
<path d="M8353 4354 c-7 -20 18 -38 29 -21 13 20 9 37 -7 37 -9 0 -18 -7 -22
-16z"/>
<path d="M12233 2615 c-17 -19 -16 -25 2 -25 8 0 15 9 15 20 0 23 -1 24 -17 5z"/>
<path d="M12076 2600 c-19 -6 -19 -7 -1 -13 20 -8 29 -4 24 11 -2 5 -13 6 -23
2z"/>
<path d="M12150 2321 c0 -44 19 -58 22 -16 0 14 1 30 2 37 1 6 -5 13 -11 16
-9 2 -13 -9 -13 -37z"/>
<path d="M12310 1940 c0 -5 9 -10 21 -10 11 0 17 5 14 10 -3 6 -13 10 -21 10
-8 0 -14 -4 -14 -10z"/>
<path d="M12434 1799 c-3 -6 -2 -15 2 -19 12 -12 38 5 30 19 -9 14 -23 14 -32
0z"/>
<path d="M12521 1784 c-30 -25 -40 -57 -22 -69 5 -3 12 -1 16 5 9 14 45 12 46
-2 0 -7 6 5 13 27 8 26 9 44 3 53 -13 17 -21 15 -56 -14z"/>
<path d="M12574 1686 c-9 -22 2 -46 21 -46 12 0 15 8 13 27 -3 30 -25 42 -34
19z"/>
<path d="M12528 1665 c-3 -3 -3 -17 0 -31 3 -19 7 -22 13 -12 17 27 6 62 -13
43z"/>
<path d="M12730 1131 c0 -15 16 -22 34 -15 25 9 19 24 -9 24 -14 0 -25 -4 -25
-9z"/>
<path d="M12796 1118 c13 -45 19 -51 33 -34 9 11 10 16 2 16 -6 0 -11 9 -11
20 0 11 -7 20 -16 20 -11 0 -14 -6 -8 -22z"/>
<path d="M12792 718 c6 -18 28 -21 28 -4 0 9 -7 16 -16 16 -9 0 -14 -5 -12
-12z"/>
<path d="M12062 8760 c0 -14 2 -19 5 -12 2 6 2 18 0 25 -3 6 -5 1 -5 -13z"/>
<path d="M11895 7749 c-66 -50 -86 -119 -33 -119 28 0 37 7 66 44 21 27 32
107 15 105 -5 0 -26 -14 -48 -30z"/>
<path d="M4380 6939 c0 -5 5 -7 10 -4 6 3 10 8 10 11 0 2 -4 4 -10 4 -5 0 -10
-5 -10 -11z"/>
<path d="M11500 2543 c0 -25 3 -43 7 -39 10 10 11 86 1 86 -5 0 -8 -21 -8 -47z"/>
<path d="M11524 2426 c-3 -14 -1 -33 5 -43 8 -15 10 -10 11 25 0 47 -6 55 -16
18z"/>
<path d="M8268 1783 c7 -3 16 -2 19 1 4 3 -2 6 -13 5 -11 0 -14 -3 -6 -6z"/>
<path d="M8435 1660 c3 -5 8 -10 11 -10 2 0 4 5 4 10 0 6 -5 10 -11 10 -5 0
-7 -4 -4 -10z"/>
<path d="M7865 1650 c4 -6 11 -8 16 -5 14 9 11 15 -7 15 -8 0 -12 -5 -9 -10z"/>
<path d="M7832 1601 c2 -7 7 -12 11 -12 12 1 9 15 -3 20 -7 2 -11 -2 -8 -8z"/>
<path d="M7740 1480 c0 -11 5 -20 10 -20 6 0 10 9 10 20 0 11 -4 20 -10 20 -5
0 -10 -9 -10 -20z"/>
<path d="M12275 687 c-4 -10 -5 -60 -1 -110 5 -69 2 -104 -9 -142 -14 -45 -55
-337 -55 -392 l0 -23 235 0 236 0 -23 33 c-12 17 -33 43 -45 57 -31 35 -103
143 -103 154 0 5 -7 17 -15 26 -8 9 -26 36 -40 61 -29 53 -72 128 -84 149 -22
39 -73 150 -80 176 -7 25 -10 26 -16 11z"/>
<path d="M4485 300 c-14 -27 -25 -56 -25 -65 0 -8 -13 -43 -30 -77 -16 -34
-30 -69 -30 -79 0 -10 -4 -21 -10 -24 -5 -3 -10 -13 -10 -21 0 -11 20 -14 101
-14 l101 0 -5 33 c-3 17 -11 68 -17 112 -6 44 -14 96 -18 115 -3 19 -5 43 -4
53 4 35 -28 15 -53 -33z"/>
<path d="M13715 70 c-3 -5 -1 -10 4 -10 6 0 11 5 11 10 0 6 -2 10 -4 10 -3 0
-8 -4 -11 -10z"/>
</g>
</svg>
